<svg xmlns="http://www.w3.org/2000/svg" xmlns:xlink="http://www.w3.org/1999/xlink" xmlns:inkscape="http://www.inkscape.org/namespaces/inkscape" version="1.1" width="293.203" height="60.688" viewBox="0 0 293.203 60.688">
<defs>
<clipPath id="clip_0">
<path d="M0 33H94V60.688H0Z"/>
</clipPath>
<clipPath id="clip_1">
<path d="M0 0H294V61H0Z"/>
</clipPath>
<clipPath id="clip_2">
<path d="M97 30H129V60.688H97Z"/>
</clipPath>
<clipPath id="clip_3">
<path d="M0 0H294V61H0Z"/>
</clipPath>
</defs>
<g>
<path d="M196.109 51.391V51.578H210.672V56.5H188.922V51.578L203.063 37.484C203.664 36.922 204.098 36.375 204.359 35.844 204.629 35.305 204.766 34.699 204.766 34.031V31.156C204.766 30.305 204.504 29.617 203.984 29.094 203.461 28.574 202.781 28.313 201.938 28.313H197.438C196.582 28.313 195.895 28.574 195.375 29.094 194.852 29.617 194.594 30.305 194.594 31.156V33.469H188.922V31.438C188.922 30.242 189.117 29.152 189.516 28.172 189.91 27.195 190.461 26.352 191.172 25.641 191.879 24.934 192.723 24.383 193.703 23.984 194.68 23.59 195.77 23.391 196.969 23.391H202.406C203.602 23.391 204.688 23.59 205.656 23.984 206.633 24.383 207.477 24.934 208.188 25.641 208.906 26.352 209.457 27.195 209.844 28.172 210.238 29.152 210.438 30.242 210.438 31.438V33.703C210.438 34.902 210.207 35.992 209.75 36.969 209.301 37.949 208.711 38.797 207.984 39.516ZM196.109 51.391" fill="#f58511"/>
<path d="M223.398 56.5C222.199 56.5 221.109 56.305 220.133 55.906 219.164 55.512 218.32 54.961 217.602 54.25 216.891 53.543 216.34 52.699 215.945 51.719 215.559 50.742 215.367 49.652 215.367 48.453V31.438C215.367 30.242 215.559 29.152 215.945 28.172 216.34 27.195 216.891 26.352 217.602 25.641 218.32 24.934 219.164 24.383 220.133 23.984 221.109 23.59 222.199 23.391 223.398 23.391H230.023C231.219 23.391 232.309 23.59 233.289 23.984 234.266 24.383 235.109 24.934 235.82 25.641 236.527 26.352 237.078 27.195 237.477 28.172 237.871 29.152 238.07 30.242 238.07 31.438V48.453C238.07 49.652 237.871 50.742 237.477 51.719 237.078 52.699 236.527 53.543 235.82 54.25 235.109 54.961 234.266 55.512 233.289 55.906 232.309 56.305 231.219 56.5 230.023 56.5ZM229.555 51.578C230.398 51.578 231.078 51.32 231.602 50.797 232.121 50.277 232.383 49.594 232.383 48.75V31.156C232.383 30.305 232.121 29.617 231.602 29.094 231.078 28.574 230.398 28.313 229.555 28.313H223.867C223.023 28.313 222.34 28.574 221.82 29.094 221.297 29.617 221.039 30.305 221.039 31.156V48.75C221.039 49.594 221.297 50.277 221.82 50.797 222.34 51.32 223.023 51.578 223.867 51.578ZM229.555 51.578" fill="#f58511"/>
<path d="M249.957 51.391V51.578H264.52V56.5H242.77V51.578L256.91 37.484C257.512 36.922 257.945 36.375 258.207 35.844 258.477 35.305 258.613 34.699 258.613 34.031V31.156C258.613 30.305 258.352 29.617 257.832 29.094 257.309 28.574 256.629 28.313 255.785 28.313H251.285C250.43 28.313 249.742 28.574 249.223 29.094 248.699 29.617 248.441 30.305 248.441 31.156V33.469H242.77V31.438C242.77 30.242 242.965 29.152 243.363 28.172 243.758 27.195 244.309 26.352 245.02 25.641 245.727 24.934 246.57 24.383 247.551 23.984 248.527 23.59 249.617 23.391 250.816 23.391H256.254C257.449 23.391 258.535 23.59 259.504 23.984 260.48 24.383 261.324 24.934 262.035 25.641 262.754 26.352 263.305 27.195 263.691 28.172 264.086 29.152 264.285 30.242 264.285 31.438V33.703C264.285 34.902 264.055 35.992 263.598 36.969 263.148 37.949 262.559 38.797 261.832 39.516ZM249.957 51.391" fill="#f58511"/>
<path d="M269.684 42.453V23.391H290.496V28.688H274.98V37.203H275.168C276.02 36.383 276.941 35.793 277.934 35.438 278.922 35.074 280.035 34.891 281.277 34.891H283.777C286.203 34.891 288.082 35.531 289.418 36.813 290.762 38.086 291.434 40.074 291.434 42.781V48.453C291.434 49.652 291.234 50.742 290.84 51.719 290.453 52.699 289.902 53.543 289.184 54.25 288.473 54.961 287.629 55.512 286.652 55.906 285.684 56.305 284.598 56.5 283.402 56.5H277.246C276.047 56.5 274.957 56.305 273.98 55.906 273.012 55.512 272.168 54.961 271.449 54.25 270.738 53.543 270.188 52.699 269.793 51.719 269.406 50.742 269.215 49.652 269.215 48.453V46.906H274.887V48.75C274.887 49.594 275.145 50.277 275.668 50.797 276.188 51.32 276.871 51.578 277.715 51.578H282.918C283.77 51.578 284.457 51.32 284.98 50.797 285.5 50.277 285.762 49.594 285.762 48.75V42.453C285.762 41.602 285.5 40.914 284.98 40.391 284.457 39.871 283.77 39.609 282.918 39.609H279.043C277.906 39.609 277 39.898 276.324 40.469 275.645 41.031 275.199 41.695 274.98 42.453ZM269.684 42.453" fill="#f58511"/>
<path d="M60.02 2.711C60.02 2.711 60.422 4.852 60.289 6.191 60.152 7.531 60.152 7.797 60.289 9.27 60.422 10.742 61.223 11.813 60.555 13.285 59.887 14.758 55.602 19.711 54.664 20.648 53.727 21.586 50.516 24.664 50.379 25.734 50.246 26.809 51.32 35.641 51.32 35.641L50.648 43.809 74.879 45.949C74.879 45.949 75.379 42.137 76.082 39.121 76.363 37.918 77.289 36.824 77.289 36.176 77.289 33.898 78.227 30.688 78.227 30.688 78.227 30.688 79.43 24.797 78.359 23.461 76.352 21.449 75.816 20.113 73.672 17.703 71.531 15.293 67.648 12.215 66.848 10.34 66.23 8.906 65.344 7.379 65 5.855 64.891 5.383 65.137 4.926 64.941 4.461 64.746 3.992 64.641 4.32 64.324 4.078 64.141 3.941 63.98 3.133 63.594 3.336 63.328 3.473 63.605 4.488 63.633 4.719 63.902 6.859 64.305 9.137 64.305 9.137 64.305 9.137 63.77 8.199 63.77 9.402 63.77 10.609 64.438 10.742 64.438 11.41 64.438 12.082 64.57 13.152 65.91 13.02 67.516 15.16 69.121 17.973 70.328 19.848 71.531 21.719 73.406 24.262 73.941 24.934 74.477 25.602 74.746 26.273 73.941 27.074 73.137 27.879 72.602 29.082 71.934 30.285 71.266 31.492 71.398 32.16 70.461 32.293 69.523 32.43 69.121 32.695 68.723 32.965 68.32 33.23 68.32 33.633 67.785 33.77 67.25 33.898 66.711 33.5 66.711 33.5 66.711 33.5 67.648 31.895 67.648 30.555 67.648 29.215 67.516 26.402 67.516 26.402 67.516 26.402 69.391 25.734 68.855 23.996 68.32 22.254 67.918 20.113 66.98 19.711 66.043 19.309 64.973 18.508 63.098 18.641 61.223 18.773 60.289 19.309 60.289 19.309 60.289 19.309 59.82 19.711 59.266 20.246 58.715 20.781 58.078 21.449 57.746 21.984 57.074 23.059 56.941 24.531 56.809 25.199 56.672 25.867 56.406 26.402 56.941 27.477 57.477 28.547 58.816 30.152 58.949 30.688 59.082 31.223 59.484 31.895 59.617 32.43 59.75 32.965 60.02 33.898 60.02 33.898 60.02 33.898 58.547 35.238 58.012 34.438 57.477 33.633 56.27 33.633 56.27 33.633 56.27 33.633 56.004 30.688 55.734 29.617 55.469 28.547 55.469 27.879 55.469 27.879 55.469 27.879 60.02 19.578 61.492 17.438 62.965 15.293 63.633 13.285 63.367 12.352 63.098 11.41 63.5 10.074 62.43 8.469 61.359 6.859 61.895 4.984 61.492 4.852 61.09 4.719 60.555 2.309 60.02 2.711" fill="#f58511"/>
<path d="M34.867 2.043C35.457 1.941 35.582 3.824 36.07 3.648 36.563 1.641 37.59 .391 38.793-.145 40-.68 39.555 .57 39.555 .57 39.555 .57 40.355-1.172 40.758-.637 41.16-.102 40.891 .438 40.625 1.371 40.355 2.309 39.555 3.516 39.285 4.984 39.016 6.461 38.883 9.137 38.883 9.137 38.883 9.137 37.945 10.477 37.68 10.875 37.41 11.277 37.008 11.945 37.008 11.945V13.688C37.008 13.688 34.391 17.945 32.688 20.969 31.863 22.43 31.254 23.602 31.254 23.859 31.254 24.664 31.656 27.477 31.656 27.477 31.656 27.477 32.859 28.813 33.527 28.945 34.199 29.082 35.137 29.082 35.137 29.082 35.137 29.082 33.129 26.809 32.992 25.734 32.859 24.664 32.055 19.711 33.527 18.105 35 16.5 38.078 12.215 39.418 12.48 40.758 12.75 41.293 13.152 43.031 14.223 44.773 15.293 46.379 16.098 46.512 18.105 46.645 20.113 46.781 21.184 46.781 22.523 46.781 23.859 46.914 25.066 46.246 26.137 45.574 27.207 44.773 27.609 44.773 27.609 44.773 27.609 43.434 27.207 43.434 27.609 43.434 28.012 43.301 28.813 43.301 28.813 43.301 28.813 44.238 29.617 45.711 29.887 47.18 30.152 48.52 29.75 48.52 29.75L49.594 28.68C49.594 28.68 45.977 17.973 44.102 15.027 42.586 12.645 42.406 12.609 42.23 11.547 42.098 10.742 41.547 8.91 41.695 8.332 41.84 7.754 42.363 8.602 42.898 9.672 43.727 11.328 44.082 10.414 43.301 8.469 42.762 7.129 41.762 5.398 41.566 5.129 41.371 4.852 41.625 4.344 42.078 4.813 42.527 5.281 42.625 5.398 42.625 5.398 42.625 5.398 41.566 3.734 41.781 3.559 42 3.383 43.055 4.559 43.055 4.559 43.055 4.559 42.566 3.184 42.922 3.145 43.273 3.105 44.016 4.695 44.254 5.145 44.078 4.598 43.922 4.105 44.215 4.086 44.508 4.066 44.785 4.754 45 5.227 45.215 5.695 45.305 6.293 45.469 6.773 45.746 7.578 45.746 8.129 45.902 8.91 46.059 9.695 45.824 11.828 46 12.207 46.68 13.652 51.867 20.816 52.871 22.559 53.875 24.297 54.813 27.508 54.879 27.813 54.945 28.109 54.879 30.855 54.578 31.492 54.277 32.129 53.875 33.031 53.875 33.031 53.875 33.031 53.52 34.348 52.805 34.883 52.09 35.418 51.379 36.621 51.422 37.07 51.465 37.516 51.555 42.961 51.512 43.719H30.762C30.762 43.719 30.047 42.066 29.289 39.344 28.531 36.621 28.039 34.035 27.949 33.813 27.863 33.59 25.543 29.84 26.254 25.824 26.969 21.809 27.949 19.578 29.336 17.57 30.719 15.563 35 9.938 35.223 8.957 35.445 7.977 35.32 6.125 34.91 4.898 34.512 3.691 34.598 2.086 34.867 2.043" fill="#f58511"/>
<path d="M88.859 29.336C88.859 29.336 88.406 29.836 87.902 30.258 87.883 29.402 87.742 28.555 87.492 27.727 87.504 27.68 87.512 27.637 87.52 27.594 87.602 26.93 87.941 24.773 87.836 22.852 88.656 24.301 89.258 25.461 89.258 25.719 89.258 26.523 88.859 29.336 88.859 29.336M74.801 31.742C73.328 32.012 71.992 31.609 71.992 31.609L70.922 30.539C70.922 30.539 72.301 26.441 73.801 22.621 73.758 23.227 73.73 23.777 73.73 24.383 73.73 25.688 73.605 26.867 74.223 27.918 74.137 28.16 74.125 28.418 74.227 28.664 74.625 29.645 74.828 30.668 74.988 31.703 74.926 31.719 74.867 31.73 74.801 31.742M94.258 27.684C93.543 23.668 92.563 21.438 91.176 19.43 89.793 17.422 85.512 11.797 85.289 10.816 85.066 9.836 85.191 7.984 85.602 6.758 86.004 5.551 85.914 3.945 85.645 3.898 85.055 3.801 84.93 5.684 84.441 5.508 83.996 3.695 80.789-2.023 82.563 3.355 82.605 3.48 81.484 .996 81.363 .949 80.391 .609 80.961 2.43 80.961 2.43 80.961 2.43 80.156 .688 79.754 1.223 79.504 1.559 80.563 3.527 80.563 3.527 80.563 3.527 79.777 2.578 79.418 2.555 78.445 2.484 80.961 5.371 81.227 6.844 81.496 8.316 81.629 10.996 81.629 10.996 81.629 10.996 82.566 12.336 82.836 12.734 83.102 13.137 83.504 13.805 83.504 13.805V15.547C83.504 15.547 83.773 15.984 84.195 16.68 83.004 15.34 81.805 14.199 81.094 14.344 79.754 14.609 79.219 15.012 77.48 16.082 77.168 16.273 76.859 16.457 76.566 16.641 77.934 14.504 78.113 14.43 78.281 13.402 78.418 12.602 78.965 10.77 78.816 10.191 78.672 9.613 78.148 10.461 77.613 11.531 76.785 13.188 76.43 12.273 77.211 10.324 77.75 8.984 78.75 7.262 78.945 6.984 79.141 6.711 78.887 6.199 78.434 6.672 77.984 7.141 77.887 7.262 77.887 7.262 77.887 7.262 78.945 5.594 78.73 5.418 78.516 5.238 77.457 6.418 77.457 6.418 77.457 6.418 77.945 5.043 77.59 5.004 77.238 4.965 76.492 6.555 76.258 7.004 76.434 6.453 76.59 5.965 76.297 5.945 76.004 5.926 75.73 6.613 75.512 7.082 75.297 7.555 75.207 8.148 75.043 8.633 74.77 9.438 74.77 9.984 74.609 10.77 74.453 11.555 74.691 13.688 74.512 14.066 73.832 15.512 68.645 22.676 67.641 24.414 66.637 26.156 65.699 29.367 65.633 29.668 65.566 29.969 65.633 32.715 65.934 33.352 66.234 33.984 66.637 34.891 66.637 34.891 66.637 34.891 66.992 36.207 67.707 36.742 68.422 37.277 69.133 38.48 69.09 38.93 69.047 39.375 68.957 44.816 69 45.574H89.75C89.75 45.574 90.461 43.926 91.223 41.203 91.98 38.48 92.449 37.672 92.539 37.445 92.629 37.223 94.969 31.699 94.258 27.684" fill="#f58511"/>
<path d="M28.762 26.148 24.98 21.871C24.98 21.871 24.793 19.887 24.918 19.02 25.043 18.152 24.98 17.098 24.672 16.477 24.359 15.855 24.297 15.238 24.297 15.238 24.297 15.238 23.43 14.742 23.68 15.359 23.926 15.98 23.988 16.91 23.988 16.91L23.43 15.918C23.43 15.918 24.609 14.246 24.297 14.059 23.988 13.871 23.184 14.43 22.746 14.926 23.059 14.121 22.746 13.75 22.438 14.059 22.129 14.371 21.758 15.113 21.758 15.113 21.758 15.113 22.129 14.305 21.82 14.371 21.508 14.43 21.012 15.359 21.012 15.734 21.012 16.105 20.02 17.594 19.711 17.715 19.402 17.84 19.09 17.035 18.906 16.539 18.719 16.043 18.223 15.609 18.098 15.855 17.977 16.105 17.852 16.602 18.098 17.344 18.348 18.086 18.531 18.461 18.844 18.957 19.152 19.453 19.277 20.691 19.277 20.691L15.867 26.086 13.945 27.262 15.559 30.672 17.789 29.867 19.09 26.336 21.383 21.684C21.383 21.684 22.316 22.551 22.746 22.922 23.184 23.297 25.785 27.883 25.785 28.07 25.785 28.254 28.762 26.148 28.762 26.148" fill="#f58511"/>
<path d="M13.527 16.996C13.246 16.73 15.035 14.434 15.863 13.602 16.695 12.773 16.996 12.848 17.449 11.793 17.902 10.734 18.129 9.527 18.129 9.527 18.129 9.527 20.016 7.719 20.465 7.418 20.918 7.113 21.449 5.832 19.938 6.738 18.43 7.641 17.676 8.246 17.523 7.641 17.375 7.039 17.902 5.906 18.277 5.531 18.656 5.152 19.637 3.191 19.109 3.117 18.582 3.043 17.223 6.059 16.77 5.68 16.316 5.305 17.91 2.91 18.137 2.309 18.363 1.703 17.586 1.883 16.922 2.945 16.219 4.063 16.199 5.223 15.859 4.801 15.613 4.496 15.766 3.645 16.008 3.277 16.254 2.914 16.648 2.246 16.254 2.094 15.859 1.941 15.492 2.703 15.25 3.098 15.008 3.492 14.703 4.617 14.703 4.617 14.703 4.617 14.066 3.434 13.793 3.613 13.52 3.797 13.426 4.102 13.641 5.012 13.852 5.922 13.762 6.074 13.824 7.105 13.883 8.141 14.004 9.75 14.004 10.113 14.004 10.477 11.027 14.852 11.027 14.852 11.027 14.852 9.176 12.211 6.047 14.457 2.918 16.707 3.555 17.801 3.465 18.648 3.375 19.5 2.906 21.977 1.668 22.777 2.77 22.645 3.742 21.773 3.742 21.773L2 24.652C2 24.652 3.508 24.555 4.98 23.18 3.406 24.852 3.707 25.926 3.707 25.926L2.203 26.293C1.531 26.625 0 26.703 0 31.738V41.086L27.75 43.141C27.75 43.141 29.074 38.113 30.547 34.93 32.941 29.758 33.961 27.699 33.895 26.023 33.828 24.352 32.086 18.863 31.016 16.922 29.945 14.98 28.203 10.965 28.203 10.965 28.203 10.965 28.539 7.754 29.074 6.348 29.609 4.941 30.012 2.465 29.543 2.465 29.074 2.465 29.074 5.008 28.742 5.141 28.406 5.277 28.742 .992 28.273 .859 27.805 .727 27.938 2.934 27.668 2.934 27.402 2.934 27.469 .258 27.066 .324 26.664 .391 26.465 1.395 26.465 1.395 26.465 1.395 25.594 .457 25.594 1.527 25.594 2.602 25.527 5.008 25.527 5.945 25.527 6.883 24.859 8.488 24.59 8.625 24.324 8.758 24.391 5.543 23.184 6.012 22.984 7.285 23.074 8.941 23.25 9.227 23.922 10.297 23.922 10.898 24.055 11.367 24.191 11.836 24.59 13.441 24.59 13.441 24.59 13.441 26.332 14.582 26.664 15.785 27 16.988 27.871 21.809 27.938 22.477 28.004 23.145 27.535 26.426 27.668 26.629 27.805 26.828 24.121 26.293 23.117 26.227 22.113 26.16 18.699 27.098 18.699 27.098L16.359 26.762C16.359 26.762 15.488 24.285 15.422 22.945 15.355 21.605 15.445 18.809 13.527 16.996" fill="#f58511"/>
<g clip-path="url(#clip_0)">
<g clip-path="url(#clip_1)">
<path d="M0 33.969H93.41V60.688005H0Z" fill="#f58511"/>
</g>
</g>
<path d="M21 34.109H9.387V41.301H20.25V45.199H9.387V52.543H21.375V56.438H4.891V30.215H21ZM21 34.109" fill="#ffffff"/>
<path d="M31.117 50.219 27.109 56.438H22.5L28.906 47.074 22.688 37.707H27.746L31.379 43.586H31.527L35.313 37.707H39.957L33.738 46.773 40.145 56.438H35.125L31.266 50.219ZM31.117 50.219" fill="#ffffff"/>
<path d="M53.258 43.25C53.258 42.574 53.07 42.031 52.695 41.621 52.32 41.211 51.695 41.004 50.824 41.004H48.762C48.09 41.004 47.547 41.211 47.133 41.621 46.723 42.031 46.516 42.574 46.516 43.25V50.895C46.516 51.566 46.723 52.109 47.133 52.523 47.547 52.938 48.09 53.141 48.762 53.141H50.824C51.695 53.141 52.32 52.938 52.695 52.523 53.07 52.109 53.258 51.566 53.258 50.895V50.07H57.566V50.445C57.566 51.469 57.449 52.367 57.211 53.141 56.973 53.918 56.563 54.566 55.977 55.09 55.387 55.613 54.613 56.016 53.652 56.289 52.691 56.563 51.496 56.699 50.074 56.699 48.652 56.699 47.438 56.563 46.441 56.289 45.441 56.016 44.629 55.613 44.004 55.09 43.379 54.566 42.926 53.918 42.637 53.141 42.352 52.367 42.207 51.469 42.207 50.445V43.699C42.207 42.699 42.352 41.809 42.637 41.023 42.926 40.234 43.379 39.578 44.004 39.055 44.629 38.531 45.441 38.133 46.441 37.855 47.438 37.582 48.652 37.441 50.074 37.441 51.496 37.441 52.691 37.582 53.652 37.855 54.613 38.133 55.387 38.531 55.977 39.055 56.563 39.578 56.973 40.234 57.211 41.023 57.449 41.809 57.566 42.699 57.566 43.699V44.074H53.258ZM53.258 43.25" fill="#ffffff"/>
<path d="M72.551 43.25C72.551 42.574 72.379 42.031 72.027 41.621 71.68 41.211 71.164 41.004 70.492 41.004H67.684C67.008 41.004 66.465 41.211 66.051 41.621 65.641 42.031 65.434 42.574 65.434 43.25V45.086H72.551ZM65.434 48.422V50.895C65.434 51.566 65.641 52.109 66.051 52.523 66.465 52.938 67.008 53.141 67.684 53.141H70.492C71.164 53.141 71.68 52.938 72.027 52.523 72.379 52.109 72.551 51.566 72.551 50.895V50.445H76.859C76.859 51.469 76.734 52.367 76.488 53.141 76.238 53.918 75.816 54.566 75.23 55.09 74.645 55.613 73.855 56.016 72.871 56.289 71.883 56.563 70.652 56.699 69.18 56.699 67.707 56.699 66.457 56.563 65.434 56.289 64.41 56.016 63.578 55.613 62.941 55.09 62.305 54.566 61.844 53.918 61.555 53.141 61.27 52.367 61.125 51.469 61.125 50.445V43.699C61.125 42.699 61.27 41.809 61.555 41.023 61.844 40.234 62.305 39.578 62.941 39.055 63.578 38.531 64.41 38.133 65.434 37.855 66.457 37.582 67.707 37.441 69.18 37.441 71.953 37.441 73.926 37.98 75.102 39.055 76.273 40.129 76.859 41.676 76.859 43.699V48.422ZM65.434 48.422" fill="#ffffff"/>
<path d="M81.172 30.211H85.480998V56.438H81.172Z" fill="#ffffff"/>
<g clip-path="url(#clip_2)">
<g clip-path="url(#clip_3)">
<path d="M112.648 39.168C111.625 39.168 110.828 39.441 110.262 39.988 109.695 40.531 109.32 41.34 109.145 42.406L108.109 48.414C107.93 49.484 108.027 50.289 108.395 50.836 108.758 51.379 109.457 51.652 110.48 51.652H111.512C112.293 51.652 112.949 51.559 113.48 51.367 114.016 51.18 114.461 50.898 114.816 50.52 115.172 50.141 115.461 49.664 115.688 49.098 115.906 48.531 116.086 47.859 116.219 47.078L116.789 43.809C117.074 42.23 116.969 41.063 116.469 40.305 115.969 39.551 114.93 39.168 113.348 39.168ZM120.492 58.328C119.199 59.082 117.809 59.664 116.32 60.063 114.828 60.465 113.25 60.664 111.582 60.664 109.465 60.664 107.543 60.336 105.805 59.68 104.07 59.023 102.578 58.094 101.336 56.895 100.086 55.691 99.125 54.25 98.445 52.57 97.77 50.891 97.43 49.027 97.43 46.98 97.43 44.512 97.867 42.238 98.746 40.172 99.625 38.102 100.82 36.328 102.336 34.848 103.848 33.367 105.629 32.219 107.676 31.395 109.723 30.57 111.902 30.156 114.215 30.156 116.352 30.156 118.289 30.488 120.023 31.145 121.758 31.801 123.25 32.723 124.496 33.914 125.742 35.105 126.703 36.539 127.383 38.219 128.063 39.898 128.402 41.762 128.402 43.809 128.402 45.188 128.219 46.492 127.852 47.715 127.484 48.938 126.957 50.016 126.266 50.949 125.574 51.887 124.742 52.625 123.762 53.172 122.781 53.719 121.684 53.988 120.457 53.988 119.391 53.988 118.5 53.781 117.789 53.371 117.074 52.961 116.598 52.398 116.352 51.688H116.254C115.941 52.02 115.609 52.324 115.25 52.605 114.895 52.883 114.477 53.121 114 53.32 113.52 53.523 112.961 53.684 112.316 53.805 111.668 53.93 110.914 53.988 110.043 53.988 108.152 53.988 106.863 53.477 106.172 52.453 105.484 51.43 105.293 50.082 105.605 48.414L106.641 42.406C106.953 40.738 107.629 39.395 108.676 38.367 109.723 37.348 111.191 36.832 113.082 36.832 114.195 36.832 115.105 37.023 115.82 37.398 116.531 37.781 117.098 38.258 117.523 38.836H117.656L118.32 37.066H120.492L118.289 49.484C118.176 50.129 118.305 50.68 118.672 51.137 119.039 51.594 119.633 51.82 120.457 51.82 121.215 51.82 121.922 51.633 122.578 51.25 123.234 50.875 123.813 50.34 124.313 49.648 124.813 48.961 125.207 48.148 125.5 47.215 125.789 46.277 125.93 45.242 125.93 44.109 125.93 42.309 125.66 40.68 125.113 39.219 124.566 37.762 123.785 36.523 122.762 35.5 121.738 34.477 120.484 33.684 119.004 33.129 117.527 32.574 115.852 32.293 113.984 32.293 112.113 32.293 110.328 32.621 108.625 33.277 106.922 33.938 105.426 34.883 104.137 36.113 102.848 37.352 101.824 38.859 101.066 40.641 100.309 42.418 99.934 44.434 99.934 46.68 99.934 48.551 100.203 50.219 100.75 51.688 101.293 53.152 102.086 54.395 103.121 55.406 104.156 56.418 105.398 57.191 106.859 57.727 108.316 58.262 109.965 58.527 111.813 58.527 113.438 58.527 114.816 58.34 115.953 57.961 117.086 57.582 118.145 57.105 119.125 56.523ZM120.492 58.328" fill="#949799"/>
</g>
</g>
<path d="M149.828 32.984H138.215V41.863H149.078V44.637H138.215V56.438H135.219V30.215H149.828ZM149.828 32.984" fill="#949799"/>
<path d="M153.387 30.211H156.387V56.438H153.387Z" fill="#949799"/>
<path d="M167.625 32.984H159.383V30.215H178.863V32.984H170.621V56.438H167.625ZM167.625 32.984" fill="#949799"/>
</g>
</svg>
