<?xml version="1.0" encoding="UTF-8" standalone="no"?>
<!-- Created with Inkscape (http://www.inkscape.org/) -->

<svg
   version="1.1"
   id="svg2"
   xml:space="preserve"
   width="641.91998"
   height="132.28"
   viewBox="0 0 641.91998 132.28"
   sodipodi:docname="FIT_color_CMYK_EN.eps"
   xmlns:inkscape="http://www.inkscape.org/namespaces/inkscape"
   xmlns:sodipodi="http://sodipodi.sourceforge.net/DTD/sodipodi-0.dtd"
   xmlns="http://www.w3.org/2000/svg"
   xmlns:svg="http://www.w3.org/2000/svg"><defs
     id="defs6" /><sodipodi:namedview
     id="namedview4"
     pagecolor="#ffffff"
     bordercolor="#666666"
     borderopacity="1.0"
     inkscape:pageshadow="2"
     inkscape:pageopacity="0.0"
     inkscape:pagecheckerboard="0" /><g
     id="g8"
     inkscape:groupmode="layer"
     inkscape:label="ink_ext_XXXXXX"
     transform="matrix(1.3333333,0,0,-1.3333333,0,132.28)"><g
       id="g10"
       transform="scale(0.1)"><path
         d="M 2573.34,330.703 V 661.406 H 1844.5 V 992.117 H 1032.42 V 0 h 2074.1 v 330.703 h -533.18"
         style="fill:#ee263a;fill-opacity:1;fill-rule:nonzero;stroke:none"
         id="path12" /><path
         d="M 0,992.117 V 0 H 992.117 V 992.117 H 0"
         style="fill:#ee263a;fill-opacity:1;fill-rule:nonzero;stroke:none"
         id="path14" /><path
         d="M 4694.58,330.703 V 661.406 H 3008.28 V 992.117 H 1844.5 V 661.406 h 728.83 V 330.703 h 533.18 V 0 h 1707.9 v 330.703 h -119.83"
         style="fill:#2cb9f1;fill-opacity:1;fill-rule:nonzero;stroke:none"
         id="path16" /><path
         d="m 1166.66,763.461 v 46.164 h 48.52 c 7.54,0 12.72,-5.191 12.72,-12.723 v -19.308 c 0,-8.492 -5.65,-14.133 -14.13,-14.133 z m 0,115.887 h 43.57 c 8.48,0 14.14,-5.676 14.14,-14.133 v -18.379 c 0,-7.535 -5.19,-12.734 -12.72,-12.734 h -44.99 z m 89.5,-100.356 v 10.371 c 0,15.778 -8.01,27.551 -20.96,32.973 v 0.934 c 10.83,5.894 17.43,16.972 17.43,31.335 v 9.188 c 0,23.789 -16.25,40.039 -40.04,40.039 H 1138.4 V 738.965 h 77.72 c 23.79,0 40.04,16.25 40.04,40.027"
         style="fill:#ffffff;fill-opacity:1;fill-rule:nonzero;stroke:none"
         id="path18" /><path
         d="m 1324.46,879.348 h 44.75 c 8.48,0 14.14,-5.676 14.14,-14.133 v -24.043 c 0,-8.469 -5.66,-14.125 -14.14,-14.125 h -44.75 z m 0,-76.793 h 27.56 l 33.21,-63.59 h 31.09 l -33.92,64.762 c 17.67,4.246 29.21,18.847 29.21,38.867 v 21.199 c 0,23.789 -16.25,40.039 -40.04,40.039 H 1296.2 V 738.965 h 28.26 v 63.59"
         style="fill:#ffffff;fill-opacity:1;fill-rule:nonzero;stroke:none"
         id="path20" /><path
         d="m 1647.14,865.215 c 0,8.457 5.65,14.133 14.13,14.133 h 37.68 c 8.48,0 14.14,-5.676 14.14,-14.133 v -87.621 c 0,-8.492 -5.66,-14.133 -14.14,-14.133 h -37.68 c -8.48,0 -14.13,5.641 -14.13,14.133 z m 11.77,-126.25 h 42.4 c 23.79,0 40.04,16.25 40.04,40.027 v 84.801 c 0,23.789 -16.25,40.039 -40.04,40.039 h -42.4 c -23.78,0 -40.04,-16.25 -40.04,-40.039 v -84.801 c 0,-23.777 16.26,-40.027 40.04,-40.027"
         style="fill:#ffffff;fill-opacity:1;fill-rule:nonzero;stroke:none"
         id="path22" /><path
         d="m 1479.91,851.781 h 0.94 l 65.01,-112.816 h 28.26 v 164.867 h -28.26 V 791.016 h -0.94 l -65.01,112.816 h -28.26 V 738.965 h 28.26 v 112.816"
         style="fill:#ffffff;fill-opacity:1;fill-rule:nonzero;stroke:none"
         id="path24" /><path
         d="m 2180.84,573.121 h -28.26 V 408.254 h 28.26 v 164.867"
         style="fill:#ffffff;fill-opacity:1;fill-rule:nonzero;stroke:none"
         id="path26" /><path
         d="m 1501.11,573.121 h -28.26 V 408.254 h 28.26 v 164.867"
         style="fill:#ffffff;fill-opacity:1;fill-rule:nonzero;stroke:none"
         id="path28" /><path
         d="m 1232.61,446.875 c 0,-8.477 -5.65,-14.121 -14.13,-14.121 h -37.69 c -8.48,0 -14.12,5.644 -14.12,14.121 V 573.121 H 1138.4 V 448.293 c 0,-23.789 16.25,-40.039 40.04,-40.039 h 42.39 c 23.79,0 40.04,16.25 40.04,40.039 v 124.828 h -28.26 V 446.875"
         style="fill:#ffffff;fill-opacity:1;fill-rule:nonzero;stroke:none"
         id="path30" /><path
         d="m 1399.84,460.305 h -0.95 l -65,112.816 h -28.27 V 408.254 h 28.27 V 521.07 h 0.94 l 65.01,-112.816 h 28.26 v 164.867 h -28.26 V 460.305"
         style="fill:#ffffff;fill-opacity:1;fill-rule:nonzero;stroke:none"
         id="path32" /><path
         d="m 1799.29,548.629 v 24.492 H 1698.01 V 408.254 h 103.63 v 24.5 h -75.37 v 46.152 h 68.31 v 24.5 h -68.31 v 45.223 h 73.02"
         style="fill:#ffffff;fill-opacity:1;fill-rule:nonzero;stroke:none"
         id="path34" /><path
         d="m 1640.54,573.121 -39.33,-125.769 h -0.94 l -39.1,125.769 h -29.44 l 53.23,-164.867 h 29.21 l 53.22,164.867 h -26.85"
         style="fill:#ffffff;fill-opacity:1;fill-rule:nonzero;stroke:none"
         id="path36" /><path
         d="m 1912.34,496.34 h -44.75 v 52.289 h 44.75 c 8.48,0 14.13,-5.652 14.13,-14.125 v -24.035 c 0,-8.481 -5.65,-14.129 -14.13,-14.129 z m 13.19,-23.324 c 17.67,4.242 29.21,18.855 29.21,38.875 v 21.191 c 0,23.789 -16.25,40.039 -40.04,40.039 h -75.37 V 408.254 h 28.26 v 63.594 h 27.56 l 33.21,-63.594 h 31.09 l -33.92,64.762"
         style="fill:#ffffff;fill-opacity:1;fill-rule:nonzero;stroke:none"
         id="path38" /><path
         d="m 2456.41,573.121 -38.4,-67.594 h -0.93 l -36.51,67.594 h -32.51 l 53.47,-94.906 v -69.961 h 28.26 v 69.961 l 56.06,94.906 h -29.44"
         style="fill:#ffffff;fill-opacity:1;fill-rule:nonzero;stroke:none"
         id="path40" /><path
         d="m 2286.83,408.254 v 140.375 h 47.1 v 24.492 h -122.47 v -24.492 h 47.1 V 408.254 h 28.27"
         style="fill:#ffffff;fill-opacity:1;fill-rule:nonzero;stroke:none"
         id="path42" /><path
         d="m 2110.18,463.367 c 0,23.789 -16.25,40.039 -40.04,40.039 h -32.97 c -8.48,0 -14.13,5.653 -14.13,14.133 v 16.965 c 0,8.473 5.65,14.125 14.13,14.125 h 29.44 c 8.48,0 14.13,-5.652 14.13,-14.125 v -11.543 h 28.27 v 10.121 c 0,23.789 -16.25,40.039 -40.04,40.039 h -34.15 c -23.79,0 -40.04,-16.25 -40.04,-40.039 v -14.133 c 0,-23.789 16.25,-40.043 40.04,-40.043 h 32.97 c 8.48,0 14.13,-5.644 14.13,-14.133 v -17.898 c 0,-8.477 -5.65,-14.121 -14.13,-14.121 h -32.97 c -8.48,0 -14.14,5.644 -14.14,14.121 v 11.543 h -28.26 v -10.125 c 0,-23.789 16.25,-40.039 40.04,-40.039 h 37.68 c 23.79,0 40.04,16.25 40.04,40.039 v 15.074"
         style="fill:#ffffff;fill-opacity:1;fill-rule:nonzero;stroke:none"
         id="path44" /><path
         d="m 2989.64,242.41 -38.39,-67.586 h -0.94 l -36.51,67.586 h -32.51 l 53.47,-94.922 V 77.5391 h 28.26 v 69.9489 l 56.07,94.922 h -29.45"
         style="fill:#ffffff;fill-opacity:1;fill-rule:nonzero;stroke:none"
         id="path46" /><path
         d="m 2204.16,129.59 h -0.95 l -65.01,112.82 h -28.25 V 77.5391 h 28.25 V 190.359 h 0.96 l 65,-112.8199 h 28.27 V 242.41 h -28.27 V 129.59"
         style="fill:#ffffff;fill-opacity:1;fill-rule:nonzero;stroke:none"
         id="path48" /><path
         d="m 1490.5,217.922 h 47.11 V 77.5391 h 28.26 V 217.922 h 47.11 V 242.41 H 1490.5 v -24.488"
         style="fill:#ffffff;fill-opacity:1;fill-rule:nonzero;stroke:none"
         id="path50" /><path
         d="M 2472.65,242.41 H 2444.4 V 77.5391 h 96.56 v 24.4919 h -68.31 V 242.41"
         style="fill:#ffffff;fill-opacity:1;fill-rule:nonzero;stroke:none"
         id="path52" /><path
         d="m 2036.93,172.695 h -65.94 v 69.715 h -28.28 V 77.5391 h 28.28 v 70.6639 h 65.94 V 77.5391 h 28.27 V 242.41 h -28.27 v -69.715"
         style="fill:#ffffff;fill-opacity:1;fill-rule:nonzero;stroke:none"
         id="path54" /><path
         d="m 2371.39,116.172 c 0,-8.477 -5.67,-14.141 -14.13,-14.141 h -37.69 c -8.49,0 -14.14,5.664 -14.14,14.141 v 87.605 c 0,8.489 5.65,14.145 14.14,14.145 h 37.69 c 8.46,0 14.13,-5.656 14.13,-14.145 z M 2359.6,242.41 h -42.38 c -23.8,0 -40.05,-16.25 -40.05,-40.039 V 117.59 c 0,-23.8009 16.25,-40.0509 40.05,-40.0509 h 42.38 c 23.79,0 40.04,16.25 40.04,40.0509 v 84.781 c 0,23.789 -16.25,40.039 -40.04,40.039"
         style="fill:#ffffff;fill-opacity:1;fill-rule:nonzero;stroke:none"
         id="path56" /><path
         d="m 1232.61,116.172 c 0,-8.477 -5.66,-14.141 -14.13,-14.141 h -37.68 c -8.49,0 -14.13,5.664 -14.13,14.141 v 87.605 c 0,8.489 5.64,14.145 14.13,14.145 h 37.68 c 8.47,0 14.13,-5.656 14.13,-14.145 z m -11.78,126.238 h -42.4 c -23.78,0 -40.04,-16.25 -40.04,-40.039 V 117.59 c 0,-23.8009 16.26,-40.0509 40.04,-40.0509 h 42.4 c 23.79,0 40.04,16.25 40.04,40.0509 v 84.781 c 0,23.789 -16.25,40.039 -40.04,40.039"
         style="fill:#ffffff;fill-opacity:1;fill-rule:nonzero;stroke:none"
         id="path58" /><path
         d="m 2820.06,242.41 h -37.68 c -23.79,0 -40.04,-16.25 -40.04,-40.039 V 117.59 c 0,-23.8009 16.25,-40.0509 40.04,-40.0509 h 37.68 c 23.79,0 40.04,16.25 40.04,40.0509 v 43.34 h -61.24 v -24.504 h 32.97 v -20.254 c 0,-8.477 -5.64,-14.141 -14.13,-14.141 h -32.97 c -8.48,0 -14.13,5.664 -14.13,14.141 v 87.605 c 0,8.489 5.65,14.145 14.13,14.145 h 32.97 c 8.49,0 14.13,-5.656 14.13,-14.145 v -11.531 h 28.27 v 10.125 c 0,23.789 -16.25,40.039 -40.04,40.039"
         style="fill:#ffffff;fill-opacity:1;fill-rule:nonzero;stroke:none"
         id="path60" /><path
         d="m 1862.65,242.41 h -37.69 c -23.79,0 -40.04,-16.25 -40.04,-40.039 V 117.59 c 0,-23.8009 16.25,-40.0509 40.04,-40.0509 h 37.69 c 23.79,0 40.04,16.25 40.04,40.0509 v 10.133 h -28.28 v -11.551 c 0,-8.477 -5.65,-14.141 -14.13,-14.141 h -32.97 c -8.48,0 -14.13,5.664 -14.13,14.141 v 87.605 c 0,8.489 5.65,14.145 14.13,14.145 h 32.97 c 8.48,0 14.13,-5.656 14.13,-14.145 v -11.531 h 28.28 v 10.125 c 0,23.789 -16.25,40.039 -40.04,40.039"
         style="fill:#ffffff;fill-opacity:1;fill-rule:nonzero;stroke:none"
         id="path62" /><path
         d="m 1671.87,148.203 h 68.3 v 24.492 h -68.3 v 45.227 h 73 V 242.41 H 1643.6 V 77.5391 h 103.64 v 24.4919 h -75.37 v 46.172"
         style="fill:#ffffff;fill-opacity:1;fill-rule:nonzero;stroke:none"
         id="path64" /><path
         d="m 2669.32,116.172 c 0,-8.477 -5.64,-14.141 -14.13,-14.141 h -37.69 c -8.47,0 -14.13,5.664 -14.13,14.141 v 87.605 c 0,8.489 5.66,14.145 14.13,14.145 h 37.69 c 8.49,0 14.13,-5.656 14.13,-14.145 z m -11.78,126.238 h -42.39 c -23.79,0 -40.04,-16.25 -40.04,-40.039 V 117.59 c 0,-23.8009 16.25,-40.0509 40.04,-40.0509 h 42.39 c 23.79,0 40.04,16.25 40.04,40.0509 v 84.781 c 0,23.789 -16.25,40.039 -40.04,40.039"
         style="fill:#ffffff;fill-opacity:1;fill-rule:nonzero;stroke:none"
         id="path66" /><path
         d="m 1305.63,77.5391 h 28.26 v 70.6639 h 63.6 v 24.492 h -63.6 v 45.227 h 68.3 v 24.488 h -96.56 V 77.5391"
         style="fill:#ffffff;fill-opacity:1;fill-rule:nonzero;stroke:none"
         id="path68" /><path
         d="m 4546.57,460.305 h -0.94 l -65.01,112.808 h -28.26 V 408.254 h 28.26 v 112.809 h 0.93 l 65.02,-112.809 h 28.26 v 164.859 h -28.26 V 460.305"
         style="fill:#ffffff;fill-opacity:1;fill-rule:nonzero;stroke:none"
         id="path70" /><path
         d="m 4379.34,446.875 c 0,-8.469 -5.65,-14.141 -14.13,-14.141 h -37.68 c -8.49,0 -14.13,5.672 -14.13,14.141 v 87.621 c 0,8.481 5.64,14.141 14.13,14.141 h 37.68 c 8.48,0 14.13,-5.66 14.13,-14.141 z m -11.77,126.238 h -42.4 c -23.78,0 -40.04,-16.25 -40.04,-40.039 v -84.773 c 0,-23.797 16.26,-40.047 40.04,-40.047 h 42.4 c 23.79,0 40.04,16.25 40.04,40.047 v 84.773 c 0,23.789 -16.25,40.039 -40.04,40.039"
         style="fill:#ffffff;fill-opacity:1;fill-rule:nonzero;stroke:none"
         id="path72" /><path
         d="m 4240.4,573.113 h -28.27 V 408.254 h 28.27 v 164.859"
         style="fill:#ffffff;fill-opacity:1;fill-rule:nonzero;stroke:none"
         id="path74" /><path
         d="m 3314.07,478.906 h 63.58 v 24.5 h -63.58 v 45.231 h 68.29 v 24.476 H 3285.8 V 408.254 h 28.27 v 70.652"
         style="fill:#ffffff;fill-opacity:1;fill-rule:nonzero;stroke:none"
         id="path76" /><path
         d="m 4181.51,573.113 h -122.48 v -24.476 h 47.11 V 408.254 h 28.26 v 140.383 h 47.11 v 24.476"
         style="fill:#ffffff;fill-opacity:1;fill-rule:nonzero;stroke:none"
         id="path78" /><path
         d="m 3458.9,432.734 c -8.48,0 -14.13,5.672 -14.13,14.141 v 87.621 c 0,8.481 5.65,14.141 14.13,14.141 h 37.7 c 8.47,0 14.13,-5.66 14.13,-14.141 v -87.621 c 0,-8.469 -5.66,-14.141 -14.13,-14.141 z m 80.08,15.567 v 84.773 c 0,23.789 -16.25,40.039 -40.04,40.039 h -42.39 c -23.79,0 -40.04,-16.25 -40.04,-40.039 v -84.773 c 0,-23.797 16.25,-40.047 40.04,-40.047 h 42.39 c 23.79,0 40.04,16.25 40.04,40.047"
         style="fill:#ffffff;fill-opacity:1;fill-rule:nonzero;stroke:none"
         id="path80" /><path
         d="m 3241.04,408.254 v 164.859 h -28.26 V 460.305 h -0.94 l -65.01,112.808 h -28.26 V 408.254 h 28.26 v 112.809 h 0.94 l 65.01,-112.809 h 28.26"
         style="fill:#ffffff;fill-opacity:1;fill-rule:nonzero;stroke:none"
         id="path82" /><path
         d="m 2721.71,432.734 c -8.48,0 -14.13,5.672 -14.13,14.141 v 87.621 c 0,8.481 5.65,14.141 14.13,14.141 h 37.68 c 8.49,0 14.14,-5.66 14.14,-14.141 v -87.621 c 0,-8.469 -5.65,-14.141 -14.14,-14.141 z m 80.08,15.567 v 84.773 c 0,23.789 -16.25,40.039 -40.04,40.039 h -42.4 c -23.78,0 -40.03,-16.25 -40.03,-40.039 v -84.773 c 0,-23.797 16.25,-40.047 40.03,-40.047 h 42.4 c 23.79,0 40.04,16.25 40.04,40.047"
         style="fill:#ffffff;fill-opacity:1;fill-rule:nonzero;stroke:none"
         id="path84" /><path
         d="m 2938.4,503.406 h -63.6 v 45.231 h 68.31 v 24.476 h -96.57 V 408.254 h 28.26 v 70.652 h 63.6 v 24.5"
         style="fill:#ffffff;fill-opacity:1;fill-rule:nonzero;stroke:none"
         id="path86" /><path
         d="m 3045.56,408.254 h 28.26 v 164.859 h -28.26 V 408.254"
         style="fill:#ffffff;fill-opacity:1;fill-rule:nonzero;stroke:none"
         id="path88" /><path
         d="m 3656.75,496.348 h -44.74 v 52.289 h 44.74 c 8.48,0 14.13,-5.66 14.13,-14.141 v -24.019 c 0,-8.481 -5.65,-14.129 -14.13,-14.129 z m 47.1,-88.094 -33.9,64.773 c 17.65,4.231 29.2,18.828 29.2,38.848 v 21.199 c 0,23.789 -16.25,40.039 -40.04,40.039 h -75.37 V 408.254 h 28.27 v 63.582 h 27.55 l 33.2,-63.582 h 31.09"
         style="fill:#ffffff;fill-opacity:1;fill-rule:nonzero;stroke:none"
         id="path90" /><path
         d="M 3860.01,509.758 V 408.254 h 28.03 v 164.859 h -27.09 L 3815.26,468.32 h -0.94 l -45.7,104.793 h -29.44 V 408.254 h 28.28 v 101.504 h 1.16 l 44.29,-101.504 h 1.41 l 44.51,101.504 h 1.18"
         style="fill:#ffffff;fill-opacity:1;fill-rule:nonzero;stroke:none"
         id="path92" /><path
         d="m 3967.42,474.426 20.95,62.422 h 0.94 l 20.73,-62.422 z m 64.52,-66.172 h 29.45 l -56.77,164.859 h -29.2 l -56.76,-164.859 h 26.85 l 13.89,41.695 h 58.65 l 13.89,-41.695"
         style="fill:#ffffff;fill-opacity:1;fill-rule:nonzero;stroke:none"
         id="path94" /><path
         d="m 2693.79,738.965 h 28.28 v 140.367 h 47.1 v 24.5 h -122.48 v -24.5 h 47.1 V 738.965"
         style="fill:#ffffff;fill-opacity:1;fill-rule:nonzero;stroke:none"
         id="path96" /><path
         d="m 2424.12,738.965 h 42.4 c 23.79,0 40.04,16.25 40.04,40.039 V 903.832 H 2478.3 V 777.594 c 0,-8.492 -5.67,-14.141 -14.14,-14.141 h -37.68 c -8.49,0 -14.13,5.649 -14.13,14.141 v 126.238 h -28.27 V 779.004 c 0,-23.789 16.26,-40.039 40.04,-40.039"
         style="fill:#ffffff;fill-opacity:1;fill-rule:nonzero;stroke:none"
         id="path98" /><path
         d="M 2266.31,738.965 H 2304 c 23.78,0 40.05,16.25 40.05,40.039 v 10.129 h -28.27 v -11.539 c 0,-8.492 -5.65,-14.141 -14.13,-14.141 h -32.97 c -8.48,0 -14.13,5.649 -14.13,14.141 v 87.609 c 0,8.469 5.65,14.129 14.13,14.129 h 32.97 c 8.48,0 14.13,-5.66 14.13,-14.129 v -11.551 h 28.27 v 10.141 c 0,23.789 -16.27,40.039 -40.05,40.039 h -37.69 c -23.79,0 -40.04,-16.25 -40.04,-40.039 v -84.789 c 0,-23.789 16.25,-40.039 40.04,-40.039"
         style="fill:#ffffff;fill-opacity:1;fill-rule:nonzero;stroke:none"
         id="path100" /><path
         d="m 2122.65,867.563 h 0.93 l 20.74,-62.422 h -42.64 z m -28.97,-86.911 h 58.64 l 13.9,-41.687 h 29.44 l -56.76,164.867 h -29.2 l -56.77,-164.867 h 26.86 l 13.89,41.687"
         style="fill:#ffffff;fill-opacity:1;fill-rule:nonzero;stroke:none"
         id="path102" /><path
         d="m 1978.75,809.625 h 63.58 v 24.477 h -63.58 v 45.23 h 68.3 v 24.5 h -96.58 V 738.965 h 28.28 v 70.66"
         style="fill:#ffffff;fill-opacity:1;fill-rule:nonzero;stroke:none"
         id="path104" /><path
         d="m 2647.88,763.453 h -68.31 V 903.832 H 2551.3 V 738.965 h 96.58 v 24.488"
         style="fill:#ffffff;fill-opacity:1;fill-rule:nonzero;stroke:none"
         id="path106" /><path
         d="m 2836.76,738.965 h 28.26 v 69.945 l 56.07,94.922 h -29.45 l -38.39,-67.602 h -0.94 l -36.51,67.602 h -32.5 l 53.46,-94.922 v -69.945"
         style="fill:#ffffff;fill-opacity:1;fill-rule:nonzero;stroke:none"
         id="path108" /><path
         d="m 3744.79,172.695 h -65.95 v 69.715 h -28.27 V 77.5391 h 28.27 v 70.6639 h 65.95 V 77.5391 h 28.26 V 242.41 h -28.26 v -69.715"
         style="fill:#ffffff;fill-opacity:1;fill-rule:nonzero;stroke:none"
         id="path110" /><path
         d="m 3379.72,148.203 h 68.3 v 24.492 h -68.3 v 45.227 h 73.01 V 242.41 H 3351.46 V 77.5391 h 103.63 v 24.4919 h -75.37 v 46.172"
         style="fill:#ffffff;fill-opacity:1;fill-rule:nonzero;stroke:none"
         id="path112" /><path
         d="m 4697.5,242.41 -38.38,-67.586 h -0.95 l -36.5,67.586 h -32.51 l 53.46,-94.922 V 77.5391 h 28.26 v 69.9489 l 56.07,94.922 h -29.45"
         style="fill:#ffffff;fill-opacity:1;fill-rule:nonzero;stroke:none"
         id="path114" /><path
         d="m 3912.02,129.59 h -0.95 l -65.01,112.82 h -28.25 V 77.5391 h 28.25 V 190.359 h 0.96 l 65,-112.8199 h 28.27 V 242.41 h -28.27 V 129.59"
         style="fill:#ffffff;fill-opacity:1;fill-rule:nonzero;stroke:none"
         id="path116" /><path
         d="m 3198.36,217.922 h 47.11 V 77.5391 h 28.27 V 217.922 h 47.1 v 24.488 h -122.48 v -24.488"
         style="fill:#ffffff;fill-opacity:1;fill-rule:nonzero;stroke:none"
         id="path118" /><path
         d="m 3570.5,242.41 h -37.68 c -23.79,0 -40.04,-16.25 -40.04,-40.039 V 117.59 c 0,-23.8009 16.25,-40.0509 40.04,-40.0509 h 37.68 c 23.79,0 40.04,16.25 40.04,40.0509 v 10.133 h -28.27 v -11.551 c 0,-8.477 -5.64,-14.141 -14.13,-14.141 h -32.97 c -8.48,0 -14.13,5.664 -14.13,14.141 v 87.605 c 0,8.489 5.65,14.145 14.13,14.145 h 32.97 c 8.49,0 14.13,-5.656 14.13,-14.145 v -11.531 h 28.27 v 10.125 c 0,23.789 -16.25,40.039 -40.04,40.039"
         style="fill:#ffffff;fill-opacity:1;fill-rule:nonzero;stroke:none"
         id="path120" /><path
         d="m 4377.18,116.172 c 0,-8.477 -5.64,-14.141 -14.13,-14.141 h -37.68 c -8.48,0 -14.13,5.664 -14.13,14.141 v 87.605 c 0,8.489 5.65,14.145 14.13,14.145 h 37.68 c 8.49,0 14.13,-5.656 14.13,-14.145 z m -11.77,126.238 h -42.4 c -23.79,0 -40.04,-16.25 -40.04,-40.039 V 117.59 c 0,-23.8009 16.25,-40.0509 40.04,-40.0509 h 42.4 c 23.78,0 40.03,16.25 40.03,40.0509 v 84.781 c 0,23.789 -16.25,40.039 -40.03,40.039"
         style="fill:#ffffff;fill-opacity:1;fill-rule:nonzero;stroke:none"
         id="path122" /><path
         d="m 4079.24,116.172 c 0,-8.477 -5.66,-14.141 -14.13,-14.141 h -37.68 c -8.49,0 -14.13,5.664 -14.13,14.141 v 87.605 c 0,8.489 5.64,14.145 14.13,14.145 h 37.68 c 8.47,0 14.13,-5.656 14.13,-14.145 z m -11.77,126.238 h -42.4 c -23.79,0 -40.04,-16.25 -40.04,-40.039 V 117.59 c 0,-23.8009 16.25,-40.0509 40.04,-40.0509 h 42.4 c 23.78,0 40.03,16.25 40.03,40.0509 v 84.781 c 0,23.789 -16.25,40.039 -40.03,40.039"
         style="fill:#ffffff;fill-opacity:1;fill-rule:nonzero;stroke:none"
         id="path124" /><path
         d="m 4527.92,242.41 h -37.68 c -23.79,0 -40.04,-16.25 -40.04,-40.039 V 117.59 c 0,-23.8009 16.25,-40.0509 40.04,-40.0509 h 37.68 c 23.79,0 40.04,16.25 40.04,40.0509 v 43.34 h -61.24 v -24.504 h 32.97 v -20.254 c 0,-8.477 -5.64,-14.141 -14.13,-14.141 h -32.97 c -8.47,0 -14.13,5.664 -14.13,14.141 v 87.605 c 0,8.489 5.66,14.145 14.13,14.145 h 32.97 c 8.49,0 14.13,-5.656 14.13,-14.145 v -11.531 h 28.27 v 10.125 c 0,23.789 -16.25,40.039 -40.04,40.039"
         style="fill:#ffffff;fill-opacity:1;fill-rule:nonzero;stroke:none"
         id="path126" /><path
         d="m 4180.51,242.41 h -28.26 V 77.5391 h 96.57 v 24.4919 h -68.31 V 242.41"
         style="fill:#ffffff;fill-opacity:1;fill-rule:nonzero;stroke:none"
         id="path128" /><path
         d="m 466.133,728.559 v 111.8 H 159.465 V 728.551 h 306.668 v 0.008"
         style="fill:#ffffff;fill-opacity:1;fill-rule:nonzero;stroke:none"
         id="path130" /><path
         d="m 581.465,165.398 v 389.25 c 0,39.563 34.328,71.622 76.644,71.622 H 830.102 V 728.559 L 466.133,728.551 V 165.398 h 115.332"
         style="fill:#ffffff;fill-opacity:1;fill-rule:nonzero;stroke:none"
         id="path132" /></g></g></svg>
