<?xml version="1.0" encoding="UTF-8" standalone="no"?>
<!-- Created with Inkscape (http://www.inkscape.org/) -->

<svg
   version="1.1"
   id="svg1"
   width="381.54904"
   height="147.58469"
   viewBox="0 0 381.54904 147.58468"
   sodipodi:docname="frama_c_logo.svg"
   inkscape:version="1.4 (e7c3feb100, 2024-10-09)"
   xmlns:inkscape="http://www.inkscape.org/namespaces/inkscape"
   xmlns:sodipodi="http://sodipodi.sourceforge.net/DTD/sodipodi-0.dtd"
   xmlns="http://www.w3.org/2000/svg"
   xmlns:svg="http://www.w3.org/2000/svg">
  <sodipodi:namedview
     id="namedview1"
     pagecolor="#ffffff"
     bordercolor="#000000"
     borderopacity="0.25"
     inkscape:showpageshadow="2"
     inkscape:pageopacity="0.0"
     inkscape:pagecheckerboard="0"
     inkscape:deskcolor="#d1d1d1"
     inkscape:zoom="0.52417901"
     inkscape:cx="190.77452"
     inkscape:cy="-112.55697"
     inkscape:window-width="1745"
     inkscape:window-height="925"
     inkscape:window-x="0"
     inkscape:window-y="0"
     inkscape:window-maximized="1"
     inkscape:current-layer="g173" />
  <defs
     id="defs1">
    <clipPath
       clipPathUnits="userSpaceOnUse"
       id="clipPath1">
      <path
         d="M 0,453.258 H 612 V 643.464 H 0 Z m 17.01,36.855 H 53.856 V 463.185 H 17.01 v 26.424 z m 0,-0.504 h 0.495 z"
         transform="matrix(0.00163364,0,0,-0.00525464,6.4611466e-5,3.3813107)"
         id="path1" />
    </clipPath>
    <clipPath
       clipPathUnits="userSpaceOnUse"
       id="clipPath2">
      <path
         d="m 0,434.034 h 442.074 v 18.225 H 0 Z"
         transform="matrix(0.00226123,0,0,-0.02815903,3.692585e-4,12.740264)"
         id="path2" />
    </clipPath>
    <clipPath
       clipPathUnits="userSpaceOnUse"
       id="clipPath3">
      <path
         d="M 441.826,434.034 H 612 v 18.225 H 441.826 Z"
         transform="matrix(0.00587329,0,0,-0.02815903,-2.5949711,12.740264)"
         id="path3" />
    </clipPath>
    <clipPath
       clipPathUnits="userSpaceOnUse"
       id="clipPath4">
      <path
         d="m 0,263.34 h 136.071 v 55.044 H 0 Z"
         transform="matrix(0.00734027,0,0,-0.00944117,0.00119866,3.273897)"
         id="path4" />
    </clipPath>
    <clipPath
       clipPathUnits="userSpaceOnUse"
       id="clipPath5">
      <path
         d="m 135.824,263.34 h 136.234 v 55.044 H 135.824 Z"
         transform="matrix(0.00734027,0,0,-0.00944117,-0.99698485,3.273897)"
         id="path5" />
    </clipPath>
    <clipPath
       clipPathUnits="userSpaceOnUse"
       id="clipPath6">
      <path
         d="m 271.811,263.34 h 136.235 v 55.044 H 271.811 Z"
         transform="matrix(0.00734027,0,0,-0.00944117,-1.9951684,3.273897)"
         id="path6" />
    </clipPath>
    <clipPath
       clipPathUnits="userSpaceOnUse"
       id="clipPath7">
      <path
         d="m 407.798,263.34 h 136.235 v 55.044 H 407.798 Z"
         transform="matrix(0.00734027,0,0,-0.00944117,-2.9933519,3.273897)"
         id="path7" />
    </clipPath>
    <clipPath
       clipPathUnits="userSpaceOnUse"
       id="clipPath8">
      <path
         d="M 543.785,263.34 H 612 v 55.044 h -68.215 z m 0,-54.567 H 612 v 21.024 h -68.215 z"
         transform="matrix(0.01464065,0,0,-0.00708916,-7.9613771,2.4582943)"
         id="path8" />
    </clipPath>
    <clipPath
       clipPathUnits="userSpaceOnUse"
       id="clipPath9">
      <path
         d="m 0,208.773 h 442.074 v 21.024 H 0 Z"
         transform="matrix(0.00226123,0,0,-0.02825748,3.692585e-4,6.8127812)"
         id="path9" />
    </clipPath>
    <clipPath
       clipPathUnits="userSpaceOnUse"
       id="clipPath10">
      <path
         d="m 441.826,208.773 h 102.207 v 21.024 H 441.826 Z"
         transform="matrix(0.00978407,0,0,-0.02825748,-4.3228575,6.8127812)"
         id="path10" />
    </clipPath>
    <clipPath
       clipPathUnits="userSpaceOnUse"
       id="clipPath11">
      <path
         d="m 0,64.917 h 204.127 v 57.402 H 0 Z"
         transform="matrix(0.004895,0,0,-0.01415349,7.9935189e-4,1.9167347)"
         id="path11" />
    </clipPath>
    <clipPath
       clipPathUnits="userSpaceOnUse"
       id="clipPath12">
      <path
         d="m 203.88,64.917 h 204.166 v 57.402 H 203.88 Z"
         transform="matrix(0.00489796,0,0,-0.01415349,-0.99859413,1.9167347)"
         id="path12" />
    </clipPath>
    <clipPath
       clipPathUnits="userSpaceOnUse"
       id="clipPath13">
      <path
         d="M 407.798,64.917 H 612 v 57.402 H 407.798 Z"
         transform="matrix(0.004895,0,0,-0.01415349,-1.9961724,1.9167347)"
         id="path13" />
    </clipPath>
    <clipPath
       clipPathUnits="userSpaceOnUse"
       id="clipPath14">
      <path
         d="m 0,452.763 h 612 v 0.495 H 0 Z"
         transform="matrix(0.00163331,0,0,-1.346953,2.6671986e-4,610.74844)"
         id="path14" />
    </clipPath>
    <clipPath
       clipPathUnits="userSpaceOnUse"
       id="clipPath15">
      <path
         d="m 0,452.259 h 612 v 0.504 H 0 Z"
         transform="matrix(0.00163331,0,0,-1.346953,2.6671986e-4,610.08179)"
         id="path15" />
    </clipPath>
    <clipPath
       clipPathUnits="userSpaceOnUse"
       id="clipPath16">
      <path
         d="M 0,0.504 H 238.031 V 63.909 H 0 Z"
         transform="matrix(0.00419825,0,0,-0.01572304,6.8557395e-4,1.0067227)"
         id="path16" />
    </clipPath>
    <clipPath
       clipPathUnits="userSpaceOnUse"
       id="clipPath17">
      <path
         d="M 237.784,0.504 H 476.102 V 63.909 H 237.784 Z"
         transform="matrix(0.00419608,0,0,-0.01572304,-0.99775728,1.0067227)"
         id="path17" />
    </clipPath>
    <clipPath
       clipPathUnits="userSpaceOnUse"
       id="clipPath18">
      <path
         d="M 475.854,0.504 H 612 V 63.909 H 475.854 Z"
         transform="matrix(0.00734027,0,0,-0.01572304,-3.4928977,1.0067227)"
         id="path18" />
    </clipPath>
    <clipPath
       clipPathUnits="userSpaceOnUse"
       id="clipPath19">
      <path
         d="M 0,0 H 612 V 0.504 H 0 Z"
         transform="matrix(0.00163331,0,0,-1.346953,2.6671986e-4,0.90926063)"
         id="path19" />
    </clipPath>
    <clipPath
       clipPathUnits="userSpaceOnUse"
       id="clipPath20">
      <path
         d="m 0,64.413 h 612 v 0.504 H 0 Z"
         transform="matrix(0.00163331,0,0,-1.346953,2.6671986e-4,87.576797)"
         id="path20" />
    </clipPath>
    <clipPath
       clipPathUnits="userSpaceOnUse"
       id="clipPath21">
      <path
         d="m 0,63.909 h 612 v 0.504 H 0 Z"
         transform="matrix(0.00163331,0,0,-1.346953,2.6671986e-4,86.910055)"
         id="path21" />
    </clipPath>
    <clipPath
       clipPathUnits="userSpaceOnUse"
       id="clipPath22">
      <path
         d="m 0,123.318 h 170.099 v 84.456 H 0 Z"
         transform="matrix(0.00587329,0,0,-0.01179802,9.5910599e-4,2.45322)"
         id="path22" />
    </clipPath>
    <clipPath
       clipPathUnits="userSpaceOnUse"
       id="clipPath23">
      <path
         d="M 0,0 H 612 V 792 H 0 Z"
         transform="matrix(0.00587329,0,0,-0.01179802,-0.99758745,2.45322)"
         id="path23" />
    </clipPath>
    <clipPath
       clipPathUnits="userSpaceOnUse"
       id="clipPath24">
      <path
         d="M 0,0 H 612 V 792 H 0 Z"
         transform="matrix(0.00587329,0,0,-0.01179802,-1.9961339,2.45322)"
         id="path24" />
    </clipPath>
    <clipPath
       clipPathUnits="userSpaceOnUse"
       id="clipPath25">
      <path
         d="M 509.882,123.318 H 612 v 84.456 H 509.882 Z"
         transform="matrix(0.00978407,0,0,-0.01179802,-4.988717,2.45322)"
         id="path25" />
    </clipPath>
    <clipPath
       clipPathUnits="userSpaceOnUse"
       id="clipPath26">
      <path
         d="m 0,208.269 h 544.033 v 0.504 H 0 Z"
         transform="matrix(0.00183757,0,0,-0.03438997,3.0007501e-4,7.184919)"
         id="path26" />
    </clipPath>
    <clipPath
       clipPathUnits="userSpaceOnUse"
       id="clipPath27">
      <path
         d="M 543.785,208.269 H 612 v 0.504 h -68.215 z"
         transform="matrix(0.01464065,0,0,-0.03438997,-7.9613771,7.184919)"
         id="path27" />
    </clipPath>
    <clipPath
       clipPathUnits="userSpaceOnUse"
       id="clipPath28">
      <path
         d="m 0,122.319 h 544.033 v 0.495 H 0 Z"
         transform="matrix(0.00183757,0,0,-0.03438997,3.0007501e-4,5.2019398)"
         id="path28" />
    </clipPath>
    <clipPath
       clipPathUnits="userSpaceOnUse"
       id="clipPath29">
      <path
         d="M 543.785,122.319 H 612 v 0.495 h -68.215 z"
         transform="matrix(0.01464065,0,0,-0.03438997,-7.9613771,5.2019398)"
         id="path29" />
    </clipPath>
    <clipPath
       clipPathUnits="userSpaceOnUse"
       id="clipPath30">
      <path
         d="m 0,207.774 h 544.033 v 0.495 H 0 Z"
         transform="matrix(0.00183757,0,0,-0.03483465,3.0007501e-4,7.2605833)"
         id="path30" />
    </clipPath>
    <clipPath
       clipPathUnits="userSpaceOnUse"
       id="clipPath31">
      <path
         d="M 543.785,207.774 H 612 v 0.495 h -68.215 z"
         transform="matrix(0.01464065,0,0,-0.03483465,-7.9613771,7.2605833)"
         id="path31" />
    </clipPath>
    <clipPath
       clipPathUnits="userSpaceOnUse"
       id="clipPath32">
      <path
         d="m 0,122.814 h 544.033 v 0.504 H 0 Z"
         transform="matrix(0.00183757,0,0,-0.03483465,3.0007501e-4,5.2735145)"
         id="path32" />
    </clipPath>
    <clipPath
       clipPathUnits="userSpaceOnUse"
       id="clipPath33">
      <path
         d="M 543.785,122.814 H 612 v 0.504 h -68.215 z"
         transform="matrix(0.01464065,0,0,-0.03483465,-7.9613771,5.2735145)"
         id="path33" />
    </clipPath>
    <clipPath
       clipPathUnits="userSpaceOnUse"
       id="clipPath34">
      <path
         d="m 0,230.796 h 476.102 v 31.545 H 0 Z"
         transform="matrix(0.00209967,0,0,-0.03144607,3.4287604e-4,8.2546902)"
         id="path34" />
    </clipPath>
    <clipPath
       clipPathUnits="userSpaceOnUse"
       id="clipPath35">
      <path
         d="M 475.854,230.796 H 612 v 31.545 H 475.854 Z"
         transform="matrix(0.00734027,0,0,-0.03144607,-3.4928977,8.2546902)"
         id="path35" />
    </clipPath>
    <clipPath
       clipPathUnits="userSpaceOnUse"
       id="clipPath36">
      <path
         d="m 0,262.836 h 476.102 v 0.504 H 0 Z m 0,-33.039 h 476.102 v 0.504 H 0 Z"
         transform="matrix(0.00209967,0,0,-0.02960308,3.4287604e-4,7.8002027)"
         id="path36" />
    </clipPath>
    <clipPath
       clipPathUnits="userSpaceOnUse"
       id="clipPath37">
      <path
         d="M 475.854,262.836 H 612 v 0.504 H 475.854 Z m 0,-33.039 H 612 v 0.504 H 475.854 Z"
         transform="matrix(0.00734027,0,0,-0.02960308,-3.4928977,7.8002027)"
         id="path37" />
    </clipPath>
    <clipPath
       clipPathUnits="userSpaceOnUse"
       id="clipPath38">
      <path
         d="m 0,262.341 h 476.102 v 0.495 H 0 Z m 0,-32.04 h 476.102 v 0.495 H 0 Z"
         transform="matrix(0.00209967,0,0,-0.03049675,3.4287604e-4,8.0205859)"
         id="path38" />
    </clipPath>
    <clipPath
       clipPathUnits="userSpaceOnUse"
       id="clipPath39">
      <path
         d="M 475.854,262.341 H 612 v 0.495 H 475.854 Z m 0,-32.04 H 612 v 0.495 H 475.854 Z"
         transform="matrix(0.00734027,0,0,-0.03049675,-3.4928977,8.0205859)"
         id="path39" />
    </clipPath>
    <clipPath
       clipPathUnits="userSpaceOnUse"
       id="clipPath40">
      <path
         d="M 0,319.383 H 136.071 V 433.035 H 0 Z"
         transform="matrix(0.00734027,0,0,-0.00878439,0.00119866,3.804843)"
         id="path40" />
    </clipPath>
    <clipPath
       clipPathUnits="userSpaceOnUse"
       id="clipPath41">
      <path
         d="M 0,0 H 612 V 792 H 0 Z"
         transform="matrix(0.00734027,0,0,-0.00878439,-0.99698485,3.804843)"
         id="path41" />
    </clipPath>
    <clipPath
       clipPathUnits="userSpaceOnUse"
       id="clipPath42">
      <path
         d="M 0,0 H 612 V 792 H 0 Z"
         transform="matrix(0.00734027,0,0,-0.00878439,-1.9951684,3.804843)"
         id="path42" />
    </clipPath>
    <clipPath
       clipPathUnits="userSpaceOnUse"
       id="clipPath43">
      <path
         d="M 0,0 H 612 V 792 H 0 Z"
         transform="matrix(0.00734027,0,0,-0.00878439,-2.9933519,3.804843)"
         id="path43" />
    </clipPath>
    <clipPath
       clipPathUnits="userSpaceOnUse"
       id="clipPath44">
      <path
         d="M 543.785,319.383 H 612 v 113.652 h -68.215 z"
         transform="matrix(0.01464065,0,0,-0.00878439,-7.9613771,3.804843)"
         id="path44" />
    </clipPath>
    <clipPath
       clipPathUnits="userSpaceOnUse"
       id="clipPath45">
      <path
         d="m 0,433.539 h 544.033 v 0.495 H 0 Z"
         transform="matrix(0.00183757,0,0,-0.03424424,3.0007501e-4,14.866335)"
         id="path45" />
    </clipPath>
    <clipPath
       clipPathUnits="userSpaceOnUse"
       id="clipPath46">
      <path
         d="M 543.785,433.539 H 612 v 0.495 h -68.215 z"
         transform="matrix(0.01464065,0,0,-0.03424424,-7.9613771,14.866335)"
         id="path46" />
    </clipPath>
    <clipPath
       clipPathUnits="userSpaceOnUse"
       id="clipPath47">
      <path
         d="m 0,318.384 h 544.033 v 0.495 H 0 Z"
         transform="matrix(0.00183757,0,0,-0.03438997,3.0007501e-4,11.946623)"
         id="path47" />
    </clipPath>
    <clipPath
       clipPathUnits="userSpaceOnUse"
       id="clipPath48">
      <path
         d="M 543.785,318.384 H 612 v 0.495 h -68.215 z"
         transform="matrix(0.01464065,0,0,-0.03438997,-7.9613771,11.946623)"
         id="path48" />
    </clipPath>
    <clipPath
       clipPathUnits="userSpaceOnUse"
       id="clipPath49">
      <path
         d="m 0,433.035 h 544.033 v 0.504 H 0 Z"
         transform="matrix(0.00183757,0,0,-0.03453693,3.0007501e-4,14.976308)"
         id="path49" />
    </clipPath>
    <clipPath
       clipPathUnits="userSpaceOnUse"
       id="clipPath50">
      <path
         d="M 543.785,433.035 H 612 v 0.504 h -68.215 z"
         transform="matrix(0.01464065,0,0,-0.03453693,-7.9613771,14.976308)"
         id="path50" />
    </clipPath>
    <clipPath
       clipPathUnits="userSpaceOnUse"
       id="clipPath51">
      <path
         d="m 0,318.879 h 544.033 v 0.504 H 0 Z"
         transform="matrix(0.00183757,0,0,-0.03468515,3.0007501e-4,12.057749)"
         id="path51" />
    </clipPath>
    <clipPath
       clipPathUnits="userSpaceOnUse"
       id="clipPath52">
      <path
         d="M 543.785,318.879 H 612 v 0.504 h -68.215 z"
         transform="matrix(0.01464065,0,0,-0.03468515,-7.9613771,12.057749)"
         id="path52" />
    </clipPath>
    <clipPath
       clipPathUnits="userSpaceOnUse"
       id="clipPath53">
      <path
         d="M 306.279,659.484 H 592.443 V 770.175 H 306.279 Z"
         transform="translate(-449.49661,-662.96422)"
         id="path53" />
    </clipPath>
    <clipPath
       clipPathUnits="userSpaceOnUse"
       id="clipPath54">
      <path
         d="M 306.279,659.484 H 592.443 V 770.175 H 306.279 Z"
         transform="translate(-460.91381,-669.82861)"
         id="path54" />
    </clipPath>
    <clipPath
       clipPathUnits="userSpaceOnUse"
       id="clipPath55">
      <path
         d="M 306.279,659.484 H 592.443 V 770.175 H 306.279 Z"
         transform="translate(-467.16621,-670.44061)"
         id="path55" />
    </clipPath>
    <clipPath
       clipPathUnits="userSpaceOnUse"
       id="clipPath56">
      <path
         d="M 306.279,659.484 H 592.443 V 770.175 H 306.279 Z"
         transform="translate(-473.60451,-663.06631)"
         id="path56" />
    </clipPath>
    <clipPath
       clipPathUnits="userSpaceOnUse"
       id="clipPath57">
      <path
         d="M 306.279,659.484 H 592.443 V 770.175 H 306.279 Z"
         transform="translate(-485.10701,-663.06631)"
         id="path57" />
    </clipPath>
    <clipPath
       clipPathUnits="userSpaceOnUse"
       id="clipPath58">
      <path
         d="M 306.279,659.484 H 592.443 V 770.175 H 306.279 Z"
         transform="translate(-494.45101,-666.92332)"
         id="path58" />
    </clipPath>
    <clipPath
       clipPathUnits="userSpaceOnUse"
       id="clipPath59">
      <path
         d="M 306.279,659.484 H 592.443 V 770.175 H 306.279 Z"
         transform="translate(-503.57452,-669.82861)"
         id="path59" />
    </clipPath>
    <clipPath
       clipPathUnits="userSpaceOnUse"
       id="clipPath60">
      <path
         d="M 306.279,659.484 H 592.443 V 770.175 H 306.279 Z"
         transform="translate(-510.65542,-669.23382)"
         id="path60" />
    </clipPath>
    <clipPath
       clipPathUnits="userSpaceOnUse"
       id="clipPath61">
      <path
         d="M 306.279,659.484 H 592.443 V 770.175 H 306.279 Z"
         transform="translate(-523.16002,-673.31182)"
         id="path61" />
    </clipPath>
    <clipPath
       clipPathUnits="userSpaceOnUse"
       id="clipPath62">
      <path
         d="M 306.279,659.484 H 592.443 V 770.175 H 306.279 Z"
         transform="translate(-535.46111,-663.06631)"
         id="path62" />
    </clipPath>
    <clipPath
       clipPathUnits="userSpaceOnUse"
       id="clipPath63">
      <path
         d="M 306.279,659.484 H 592.443 V 770.175 H 306.279 Z"
         transform="translate(-544.65161,-666.92332)"
         id="path63" />
    </clipPath>
    <clipPath
       clipPathUnits="userSpaceOnUse"
       id="clipPath64">
      <path
         d="M 306.279,659.484 H 592.443 V 770.175 H 306.279 Z"
         transform="translate(-551.19292,-663.06631)"
         id="path64" />
    </clipPath>
    <clipPath
       clipPathUnits="userSpaceOnUse"
       id="clipPath65">
      <path
         d="M 306.279,659.484 H 592.443 V 770.175 H 306.279 Z"
         transform="translate(-556.08271,-661.04431)"
         id="path65" />
    </clipPath>
    <clipPath
       clipPathUnits="userSpaceOnUse"
       id="clipPath66">
      <path
         d="M 306.279,659.484 H 592.443 V 770.175 H 306.279 Z"
         transform="translate(-561.17951,-663.06631)"
         id="path66" />
    </clipPath>
    <clipPath
       clipPathUnits="userSpaceOnUse"
       id="clipPath67">
      <path
         d="M 306.279,659.484 H 592.443 V 770.175 H 306.279 Z"
         transform="translate(-574.83922,-669.23382)"
         id="path67" />
    </clipPath>
    <clipPath
       clipPathUnits="userSpaceOnUse"
       id="clipPath68">
      <path
         d="M 306.279,659.484 H 592.443 V 770.175 H 306.279 Z"
         transform="translate(-583.84391,-669.82861)"
         id="path68" />
    </clipPath>
    <clipPath
       clipPathUnits="userSpaceOnUse"
       id="clipPath69">
      <path
         d="M 306.279,659.484 H 592.443 V 770.175 H 306.279 Z"
         transform="translate(-589.04281,-662.96422)"
         id="path69" />
    </clipPath>
    <clipPath
       clipPathUnits="userSpaceOnUse"
       id="clipPath70">
      <path
         d="m 479.313,694.836 h 49.14 v 52.731 h -49.14 z"
         transform="translate(-514.07101,-747.56702)"
         id="path70" />
    </clipPath>
    <clipPath
       clipPathUnits="userSpaceOnUse"
       id="clipPath71">
      <path
         d="M 306.279,659.484 H 592.443 V 770.175 H 306.279 Z"
         transform="translate(-590.50852,-730.05652)"
         id="path71" />
    </clipPath>
    <clipPath
       clipPathUnits="userSpaceOnUse"
       id="clipPath72">
      <path
         d="M 306.279,659.484 H 592.443 V 770.175 H 306.279 Z"
         transform="translate(-355.41901,-709.21802)"
         id="path72" />
    </clipPath>
    <clipPath
       clipPathUnits="userSpaceOnUse"
       id="clipPath73">
      <path
         d="M 306.279,659.484 H 592.443 V 770.175 H 306.279 Z"
         transform="translate(-324.68541,-726.18172)"
         id="path73" />
    </clipPath>
    <clipPath
       clipPathUnits="userSpaceOnUse"
       id="clipPath74">
      <path
         d="m 349.542,694.836 h 49.131 v 52.722 h -49.131 z"
         transform="translate(-384.29101,-747.55802)"
         id="path74" />
    </clipPath>
    <clipPath
       clipPathUnits="userSpaceOnUse"
       id="clipPath75">
      <path
         d="m 349.542,694.836 h 49.131 v 52.722 h -49.131 z"
         transform="translate(-352.47911,-741.89172)"
         id="path75" />
    </clipPath>
    <clipPath
       clipPathUnits="userSpaceOnUse"
       id="clipPath76">
      <path
         d="M 306.279,659.484 H 592.443 V 770.175 H 306.279 Z"
         transform="translate(-368.90691,-726.18222)"
         id="path76" />
    </clipPath>
    <clipPath
       clipPathUnits="userSpaceOnUse"
       id="clipPath77">
      <path
         d="m 436.059,694.836 h 49.131 v 52.731 h -49.131 z"
         transform="translate(-470.80801,-747.56702)"
         id="path77" />
    </clipPath>
    <clipPath
       clipPathUnits="userSpaceOnUse"
       id="clipPath78">
      <path
         d="m 436.059,694.836 h 49.131 v 52.731 h -49.131 z"
         transform="translate(-482.25281,-741.89492)"
         id="path78" />
    </clipPath>
    <clipPath
       clipPathUnits="userSpaceOnUse"
       id="clipPath79">
      <path
         d="M 306.279,659.484 H 592.443 V 770.175 H 306.279 Z"
         transform="translate(-444.20151,-708.40882)"
         id="path79" />
    </clipPath>
    <clipPath
       clipPathUnits="userSpaceOnUse"
       id="clipPath80">
      <path
         d="M 306.279,659.484 H 592.443 V 770.175 H 306.279 Z"
         transform="translate(-506.56552,-717.95372)"
         id="path80" />
    </clipPath>
    <clipPath
       clipPathUnits="userSpaceOnUse"
       id="clipPath81">
      <path
         d="M 306.279,659.484 H 592.443 V 770.175 H 306.279 Z"
         transform="translate(-567.51031,-730.01042)"
         id="path81" />
    </clipPath>
    <clipPath
       clipPathUnits="userSpaceOnUse"
       id="clipPath82">
      <path
         d="m 392.796,694.836 h 49.14 v 52.722 h -49.14 z"
         transform="translate(-427.55401,-747.55802)"
         id="path82" />
    </clipPath>
    <clipPath
       clipPathUnits="userSpaceOnUse"
       id="clipPath83">
      <path
         d="m 392.796,694.836 h 49.14 v 52.722 h -49.14 z"
         transform="translate(-395.73581,-741.89162)"
         id="path83" />
    </clipPath>
    <clipPath
       clipPathUnits="userSpaceOnUse"
       id="clipPath84">
      <path
         d="m 392.796,694.836 h 49.14 v 52.722 h -49.14 z"
         transform="translate(-438.99481,-741.89332)"
         id="path84" />
    </clipPath>
    <clipPath
       clipPathUnits="userSpaceOnUse"
       id="clipPath85">
      <path
         d="M 306.279,659.484 H 592.443 V 770.175 H 306.279 Z"
         transform="translate(-418.72071,-717.95322)"
         id="path85" />
    </clipPath>
    <clipPath
       clipPathUnits="userSpaceOnUse"
       id="clipPath86">
      <path
         d="M 0,0 H 612 V 792 H 0 Z"
         transform="translate(0,2.5000001e-5)"
         id="path86" />
    </clipPath>
    <clipPath
       clipPathUnits="userSpaceOnUse"
       id="clipPath87">
      <path
         d="M 53.856,490.113 H 17.01 v -0.504 h 0.495 -0.495 v -26.424 h 36.846 v 26.928 M 17.505,489.609 H 53.361 V 463.68 H 17.505 Z"
         transform="matrix(0.02693881,0,0,-0.03690246,-0.45560108,18.088834)"
         id="path87" />
    </clipPath>
    <clipPath
       clipPathUnits="userSpaceOnUse"
       id="clipPath88">
      <path
         d="M 0,0 H 612 V 792 H 0 Z"
         transform="translate(0,2.5000001e-5)"
         id="path88" />
    </clipPath>
  </defs>
  <g
     id="g1"
     transform="translate(-388.34,-102.298)">
    <g
       id="g173">
      <path
         d="m 0,0 c -1.819,0 -3.008,0.459 -4.146,1.597 l 0.884,0.884 c 1.002,-1.002 1.936,-1.326 3.295,-1.326 1.768,0 2.856,0.833 2.856,2.243 0,0.629 -0.187,1.173 -0.579,1.513 C 1.92,5.25 1.614,5.353 0.73,5.488 L -0.68,5.71 c -0.951,0.152 -1.699,0.458 -2.226,0.917 -0.611,0.543 -0.917,1.291 -0.917,2.259 0,2.056 1.478,3.415 3.874,3.415 1.546,0 2.565,-0.39 3.602,-1.325 L 2.82,10.144 C 2.073,10.824 1.274,11.18 0,11.18 c -1.614,0 -2.549,-0.901 -2.549,-2.242 0,-0.595 0.17,-1.071 0.544,-1.394 0.374,-0.323 1.003,-0.56 1.631,-0.662 L 0.951,6.678 C 2.09,6.508 2.65,6.27 3.16,5.828 3.823,5.268 4.179,4.435 4.179,3.432 4.179,1.308 2.514,0 0,0"
         style="fill:#231f20;fill-opacity:1;fill-rule:nonzero;stroke:none"
         transform="matrix(1.3333333,0,0,-1.3333333,579.2968,245.2424)"
         clip-path="url(#clipPath53)"
         id="path139" />
      <path
         d="m 0,0 c -0.391,0.391 -0.935,0.612 -1.529,0.612 -0.595,0 -1.122,-0.221 -1.512,-0.612 -0.612,-0.612 -0.68,-1.648 -0.68,-2.583 0,-0.934 0.068,-1.971 0.68,-2.582 0.39,-0.391 0.917,-0.612 1.512,-0.612 0.594,0 1.138,0.221 1.529,0.612 0.612,0.611 0.663,1.648 0.663,2.582 C 0.663,-1.648 0.612,-0.612 0,0 m 0.867,-5.913 c -0.578,-0.578 -1.377,-0.951 -2.396,-0.951 -1.02,0 -1.818,0.373 -2.396,0.951 -0.849,0.867 -1.019,2.039 -1.019,3.33 0,1.292 0.17,2.464 1.019,3.33 0.578,0.579 1.376,0.952 2.396,0.952 1.019,0 1.818,-0.373 2.396,-0.952 0.849,-0.866 1.019,-2.038 1.019,-3.33 0,-1.291 -0.17,-2.463 -1.019,-3.33"
         style="fill:#231f20;fill-opacity:1;fill-rule:nonzero;stroke:none"
         transform="matrix(1.3333333,0,0,-1.3333333,594.51973,236.08987)"
         clip-path="url(#clipPath54)"
         id="path140" />
      <path
         d="M 0,0 V -7.375 H -1.224 V 0 h -1.07 v 0.935 h 1.07 v 1.579 c 0,1.241 0.697,2.244 2.124,2.244 H 1.784 V 3.704 H 1.122 C 0.34,3.704 0,3.245 0,2.481 V 0.935 H 1.784 V 0 Z"
         style="fill:#231f20;fill-opacity:1;fill-rule:nonzero;stroke:none"
         transform="matrix(1.3333333,0,0,-1.3333333,602.85627,235.27387)"
         clip-path="url(#clipPath55)"
         id="path141" />
      <path
         d="m 0,0 c -1.427,0 -2.141,1.002 -2.141,2.243 v 5.132 h -1.053 v 0.934 h 1.053 v 2.616 h 1.224 V 8.309 H 0.867 V 7.375 H -0.917 V 2.277 c 0,-0.765 0.356,-1.224 1.138,-1.224 H 0.867 V 0 Z"
         style="fill:#231f20;fill-opacity:1;fill-rule:nonzero;stroke:none"
         transform="matrix(1.3333333,0,0,-1.3333333,611.44067,245.10627)"
         clip-path="url(#clipPath56)"
         id="path142" />
      <path
         d="M 0,0 H -1.139 L -3.33,6.491 -5.505,0 h -1.138 l -2.651,8.36 h 1.325 l 1.92,-6.712 2.192,6.712 h 1.053 L -0.595,1.648 1.308,8.36 h 1.326 z"
         style="fill:#231f20;fill-opacity:1;fill-rule:nonzero;stroke:none"
         transform="matrix(1.3333333,0,0,-1.3333333,626.77733,245.10627)"
         clip-path="url(#clipPath57)"
         id="path143" />
      <path
         d="m 0,0 h -2.345 c -1.257,0 -1.869,-0.51 -1.869,-1.479 0,-0.968 0.595,-1.427 1.92,-1.427 0.714,0 1.343,0.052 1.869,0.561 C -0.136,-2.073 0,-1.597 0,-0.9 Z m 0,-3.857 v 0.798 c -0.68,-0.679 -1.291,-0.9 -2.412,-0.9 -1.156,0 -1.836,0.221 -2.362,0.765 -0.408,0.407 -0.629,1.036 -0.629,1.699 0,1.461 1.019,2.412 2.889,2.412 H 0 v 0.799 c 0,1.223 -0.612,1.835 -2.141,1.835 -1.07,0 -1.614,-0.255 -2.107,-0.952 L -5.08,3.364 c 0.748,0.968 1.597,1.241 2.956,1.241 2.243,0 3.348,-0.969 3.348,-2.787 v -5.675 z"
         style="fill:#231f20;fill-opacity:1;fill-rule:nonzero;stroke:none"
         transform="matrix(1.3333333,0,0,-1.3333333,639.236,239.9636)"
         clip-path="url(#clipPath58)"
         id="path144" />
      <path
         d="m 0,0 c -0.459,0.459 -0.798,0.612 -1.444,0.612 -1.223,0 -2.005,-0.969 -2.005,-2.243 v -5.131 h -1.223 v 8.359 h 1.223 V 0.578 c 0.459,0.696 1.376,1.121 2.345,1.121 0.798,0 1.41,-0.186 2.004,-0.781 z"
         style="fill:#231f20;fill-opacity:1;fill-rule:nonzero;stroke:none"
         transform="matrix(1.3333333,0,0,-1.3333333,651.40067,236.08987)"
         clip-path="url(#clipPath59)"
         id="path145" />
      <path
         d="M 0,0 C -0.323,0.765 -1.07,1.257 -1.954,1.257 -2.837,1.257 -3.585,0.765 -3.908,0 -4.095,-0.459 -4.129,-0.714 -4.163,-1.393 H 0.255 C 0.221,-0.714 0.187,-0.459 0,0 m -4.163,-2.31 c 0,-1.836 0.867,-2.889 2.464,-2.889 0.969,0 1.529,0.289 2.192,0.951 l 0.833,-0.73 c -0.85,-0.85 -1.632,-1.292 -3.059,-1.292 -2.209,0 -3.653,1.326 -3.653,4.282 0,2.702 1.308,4.282 3.432,4.282 2.158,0 3.433,-1.563 3.433,-4.044 v -0.56 z"
         style="fill:#231f20;fill-opacity:1;fill-rule:nonzero;stroke:none"
         transform="matrix(1.3333333,0,0,-1.3333333,660.84187,236.88293)"
         clip-path="url(#clipPath60)"
         id="path146" />
      <path
         d="m 0,0 -2.277,-6.388 h 4.52 z M 3.585,-10.245 2.617,-7.51 h -5.284 l -0.969,-2.735 h -1.377 l 4.452,12.097 h 1.088 l 4.434,-12.097 z"
         style="fill:#231f20;fill-opacity:1;fill-rule:nonzero;stroke:none"
         transform="matrix(1.3333333,0,0,-1.3333333,677.51467,231.4456)"
         clip-path="url(#clipPath61)"
         id="path147" />
      <path
         d="m 0,0 v 5.148 c 0,1.479 -0.799,2.227 -2.056,2.227 -1.258,0 -2.073,-0.766 -2.073,-2.227 V 0 h -1.224 v 8.36 h 1.224 V 7.442 c 0.594,0.68 1.41,1.02 2.345,1.02 0.9,0 1.63,-0.272 2.141,-0.782 C 0.951,7.102 1.223,6.321 1.223,5.353 V 0 Z"
         style="fill:#231f20;fill-opacity:1;fill-rule:nonzero;stroke:none"
         transform="matrix(1.3333333,0,0,-1.3333333,693.91613,245.10627)"
         clip-path="url(#clipPath62)"
         id="path148" />
      <path
         d="m 0,0 h -2.345 c -1.257,0 -1.869,-0.51 -1.869,-1.479 0,-0.968 0.595,-1.427 1.92,-1.427 0.714,0 1.343,0.052 1.869,0.561 C -0.136,-2.073 0,-1.597 0,-0.9 Z m 0,-3.857 v 0.798 c -0.68,-0.679 -1.291,-0.9 -2.412,-0.9 -1.156,0 -1.836,0.221 -2.362,0.765 -0.408,0.407 -0.629,1.036 -0.629,1.699 0,1.461 1.019,2.412 2.889,2.412 H 0 v 0.799 c 0,1.223 -0.612,1.835 -2.141,1.835 -1.07,0 -1.614,-0.255 -2.107,-0.952 L -5.08,3.364 c 0.748,0.968 1.597,1.241 2.956,1.241 2.243,0 3.348,-0.969 3.348,-2.787 v -5.675 z"
         style="fill:#231f20;fill-opacity:1;fill-rule:nonzero;stroke:none"
         transform="matrix(1.3333333,0,0,-1.3333333,706.17013,239.9636)"
         clip-path="url(#clipPath63)"
         id="path149" />
      <path
         d="m 0,0 c -1.461,0 -2.124,0.951 -2.124,2.226 v 9.872 H -0.9 V 2.277 c 0,-0.816 0.271,-1.224 1.121,-1.224 H 0.883 V 0 Z"
         style="fill:#231f20;fill-opacity:1;fill-rule:nonzero;stroke:none"
         transform="matrix(1.3333333,0,0,-1.3333333,714.89187,245.10627)"
         clip-path="url(#clipPath64)"
         id="path150" />
      <path
         d="M 0,0 C -0.17,-0.458 -0.357,-0.765 -0.595,-0.985 -1.037,-1.41 -1.631,-1.563 -2.226,-1.563 h -0.526 v 1.087 h 0.373 c 0.85,0 1.105,0.273 1.377,1.037 l 0.594,1.631 -3.007,8.19 H -2.09 L 0.204,3.67 2.481,10.382 h 1.325 z"
         style="fill:#231f20;fill-opacity:1;fill-rule:nonzero;stroke:none"
         transform="matrix(1.3333333,0,0,-1.3333333,721.4116,247.80227)"
         clip-path="url(#clipPath65)"
         id="path151" />
      <path
         d="M 0,0 V 1.053 L 4.656,7.272 H 0.255 V 8.36 H 6.066 V 7.323 L 1.393,1.087 H 6.066 V 0 Z"
         style="fill:#231f20;fill-opacity:1;fill-rule:nonzero;stroke:none"
         transform="matrix(1.3333333,0,0,-1.3333333,728.20733,245.10627)"
         clip-path="url(#clipPath66)"
         id="path152" />
      <path
         d="M 0,0 C -0.323,0.765 -1.07,1.257 -1.954,1.257 -2.837,1.257 -3.585,0.765 -3.908,0 -4.095,-0.459 -4.129,-0.714 -4.163,-1.393 H 0.255 C 0.221,-0.714 0.187,-0.459 0,0 m -4.163,-2.31 c 0,-1.836 0.867,-2.889 2.464,-2.889 0.969,0 1.529,0.289 2.192,0.951 l 0.833,-0.73 c -0.85,-0.85 -1.632,-1.292 -3.059,-1.292 -2.209,0 -3.653,1.326 -3.653,4.282 0,2.702 1.308,4.282 3.432,4.282 2.158,0 3.433,-1.563 3.433,-4.044 v -0.56 z"
         style="fill:#231f20;fill-opacity:1;fill-rule:nonzero;stroke:none"
         transform="matrix(1.3333333,0,0,-1.3333333,746.42027,236.88293)"
         clip-path="url(#clipPath67)"
         id="path153" />
      <path
         d="m 0,0 c -0.459,0.459 -0.798,0.612 -1.444,0.612 -1.223,0 -2.005,-0.969 -2.005,-2.243 v -5.131 h -1.223 v 8.359 h 1.223 V 0.578 c 0.459,0.696 1.376,1.121 2.345,1.121 0.798,0 1.41,-0.186 2.004,-0.781 z"
         style="fill:#231f20;fill-opacity:1;fill-rule:nonzero;stroke:none"
         transform="matrix(1.3333333,0,0,-1.3333333,758.42653,236.08987)"
         clip-path="url(#clipPath68)"
         id="path154" />
      <path
         d="m 0,0 c -1.41,0 -2.514,0.323 -3.432,1.206 l 0.815,0.816 c 0.663,-0.696 1.564,-0.969 2.6,-0.969 1.376,0 2.226,0.494 2.226,1.479 0,0.73 -0.425,1.138 -1.393,1.223 l -1.377,0.119 c -1.631,0.136 -2.498,0.867 -2.498,2.243 0,1.529 1.292,2.447 3.076,2.447 1.189,0 2.26,-0.289 3.007,-0.901 L 2.226,6.865 C 1.631,7.324 0.867,7.527 0,7.527 -1.224,7.527 -1.869,7 -1.869,6.151 c 0,-0.714 0.408,-1.138 1.461,-1.223 L 0.935,4.809 C 2.396,4.673 3.398,4.112 3.398,2.549 3.398,0.935 2.022,0 0,0"
         style="fill:#231f20;fill-opacity:1;fill-rule:nonzero;stroke:none"
         transform="matrix(1.3333333,0,0,-1.3333333,765.3584,245.2424)"
         clip-path="url(#clipPath69)"
         id="path155" />
      <path
         d="m 0,0 h -20.376 c -4.665,0 -8.814,-2.226 -11.442,-5.672 1.843,-2.418 2.937,-5.437 2.937,-8.71 v -23.976 c 0,-3.273 -1.094,-6.29 -2.937,-8.706 2.629,-3.445 6.777,-5.667 11.442,-5.667 H 0 c 7.938,0 14.382,6.435 14.382,14.382 v 23.967 C 14.382,-6.444 7.938,0 0,0"
         style="fill:#f2521b;fill-opacity:1;fill-rule:nonzero;stroke:none"
         transform="matrix(1.3333333,0,0,-1.3333333,665.396,132.43867)"
         clip-path="url(#clipPath70)"
         id="path156" />
      <path
         d="m 0,0 h -1.768 c 0,-3.489 -1.408,-6.631 -3.694,-8.919 -2.289,-2.285 -5.43,-3.693 -8.919,-3.694 h -20.372 c -3.489,10e-4 -6.631,1.409 -8.919,3.694 -2.286,2.288 -3.694,5.43 -3.695,8.919 v 23.967 c 10e-4,3.489 1.409,6.631 3.695,8.92 2.288,2.285 5.43,3.693 8.919,3.694 h 20.372 c 3.489,-0.001 6.63,-1.409 8.919,-3.694 2.286,-2.289 3.694,-5.431 3.694,-8.92 L -1.768,0 H 0 1.768 v 23.967 c 0,4.454 -1.811,8.502 -4.73,11.419 -2.918,2.92 -6.965,4.731 -11.419,4.73 h -20.372 c -4.454,10e-4 -8.502,-1.81 -11.419,-4.73 -2.92,-2.917 -4.731,-6.965 -4.73,-11.419 V 0 c -10e-4,-4.454 1.81,-8.502 4.73,-11.419 2.917,-2.919 6.965,-4.73 11.419,-4.729 h 20.372 c 4.454,-0.001 8.501,1.81 11.419,4.729 2.919,2.917 4.73,6.965 4.73,11.419 z"
         style="fill:#231f20;fill-opacity:1;fill-rule:nonzero;stroke:none"
         transform="matrix(1.3333333,0,0,-1.3333333,767.31267,155.786)"
         clip-path="url(#clipPath71)"
         id="path157" />
      <path
         d="m 0,0 c 0,-7.947 -6.444,-14.382 -14.382,-14.382 h -20.376 c -7.938,0 -14.382,6.435 -14.382,14.382 v 23.967 c 0,7.938 6.444,14.373 14.382,14.373 h 20.376 C -6.444,38.34 0,31.905 0,23.967 V 0"
         style="fill:#f2521b;fill-opacity:1;fill-rule:nonzero;stroke:none"
         transform="matrix(1.3333333,0,0,-1.3333333,453.86,183.57067)"
         clip-path="url(#clipPath72)"
         id="path158" />
      <path
         d="M 0,0 H -4.232 V 0.752 H 0 v 3.245 c 0,5.877 2.68,12.037 7.382,12.037 2.915,0 4.232,-2.116 4.232,-4.279 0,-1.129 -0.799,-2.21 -2.257,-2.21 -1.411,0 -1.975,0.987 -1.975,1.881 0,2.163 2.539,1.598 2.539,2.586 0,0.705 -1.081,1.269 -2.351,1.269 -2.257,0 -3.62,-1.269 -3.62,-6.488 V 0.752 H 9.31 V 0 H 3.95 v -17.774 h 4.278 v -0.752 h -12.46 v 0.752 H 0 Z"
         style="fill:#ffffff;fill-opacity:1;fill-rule:nonzero;stroke:none"
         transform="matrix(1.3333333,0,0,-1.3333333,412.88187,160.9524)"
         clip-path="url(#clipPath73)"
         id="path159" />
      <path
         d="m 0,0 h -20.367 c -4.67,0 -8.818,-2.223 -11.445,-5.666 1.844,-2.417 2.94,-5.434 2.94,-8.707 V -38.34 c 0,-3.277 -1.096,-6.297 -2.941,-8.715 2.627,-3.444 6.775,-5.667 11.446,-5.667 H 0 c 4.67,0 8.818,2.223 11.445,5.666 -1.845,2.417 -2.94,5.434 -2.94,8.707 v 23.976 c 0,3.273 1.095,6.29 2.94,8.707 C 8.818,-2.223 4.67,0 0,0"
         style="fill:#f68712;fill-opacity:1;fill-rule:nonzero;stroke:none"
         transform="matrix(1.3333333,0,0,-1.3333333,492.356,132.45067)"
         clip-path="url(#clipPath74)"
         id="path160" />
      <path
         d="m 0,0 c -1.843,-2.416 -2.937,-5.433 -2.937,-8.707 v -23.976 c 0,-3.272 1.094,-6.289 2.936,-8.706 1.845,2.418 2.941,5.438 2.941,8.715 V -8.707 C 2.94,-5.433 1.844,-2.416 0,0"
         style="fill:#ef3720;fill-opacity:1;fill-rule:nonzero;stroke:none"
         transform="matrix(1.3333333,0,0,-1.3333333,449.94013,140.00573)"
         clip-path="url(#clipPath75)"
         id="path161" />
      <path
         d="M 0,0 H -3.95 V 0.752 H 0 c 1.504,0 3.009,0.094 3.95,1.035 v -5.549 h 0.094 c 0.564,2.116 2.209,5.549 6.065,5.549 1.74,0 3.104,-1.129 3.104,-2.775 0,-1.222 -0.753,-2.21 -2.164,-2.21 -1.551,0 -2.068,0.8 -2.068,2.069 0,1.035 0.517,1.74 1.034,2.022 C 9.827,1.034 9.592,1.034 9.357,1.034 7.429,1.034 3.95,-2.022 3.95,-8.135 v -9.638 h 4.278 v -0.753 H -3.95 v 0.753 H 0 Z"
         style="fill:#ffffff;fill-opacity:1;fill-rule:nonzero;stroke:none"
         transform="matrix(1.3333333,0,0,-1.3333333,471.84387,160.95173)"
         clip-path="url(#clipPath76)"
         id="path162" />
      <path
         d="m 0,0 h -20.367 c -4.671,0 -8.82,-2.226 -11.446,-5.674 1.845,-2.416 2.941,-5.434 2.941,-8.708 v -23.976 c 0,-3.273 -1.096,-6.29 -2.94,-8.707 2.627,-3.443 6.775,-5.666 11.445,-5.666 H 0 c 4.671,0 8.819,2.223 11.445,5.667 -1.844,2.418 -2.94,5.438 -2.94,8.715 v 23.967 c 0,3.273 1.095,6.292 2.94,8.71 C 8.818,-2.226 4.67,0 0,0"
         style="fill:#f68712;fill-opacity:1;fill-rule:nonzero;stroke:none"
         transform="matrix(1.3333333,0,0,-1.3333333,607.712,132.43867)"
         clip-path="url(#clipPath77)"
         id="path163" />
      <path
         d="m 0,0 c -1.844,-2.418 -2.94,-5.437 -2.94,-8.71 v -23.967 c 0,-3.277 1.096,-6.297 2.941,-8.715 1.842,2.416 2.936,5.433 2.936,8.706 V -8.71 C 2.937,-5.437 1.843,-2.418 0,0"
         style="fill:#ef3720;fill-opacity:1;fill-rule:nonzero;stroke:none"
         transform="matrix(1.3333333,0,0,-1.3333333,622.97173,140.00147)"
         clip-path="url(#clipPath78)"
         id="path164" />
      <path
         d="M 0,0 H 3.351 V 17.773 H 0 v 0.753 h 3.351 c 2.035,0 2.799,0 3.562,1.034 v -4.608 h 0.085 c 1.145,2.304 2.926,4.608 6.107,4.608 2.715,0 5.429,-0.846 5.811,-5.031 h 0.085 c 0.848,2.68 2.969,5.078 6.15,5.031 4.325,-0.047 5.768,-2.774 5.768,-5.736 V 0 h 3.35 V -0.752 H 24.005 V 0 h 3.351 v 14.67 c 0,3.385 -1.358,4.138 -2.969,4.138 -2.46,0 -4.623,-2.963 -5.471,-6.254 V 0 h 3.223 V -0.752 H 12.003 V 0 h 3.35 v 15.564 c 0,2.35 -1.06,3.244 -2.757,3.244 -2.544,0 -4.453,-2.21 -5.683,-5.549 V 0 h 3.223 V -0.752 H 0 Z"
         style="fill:#ffffff;fill-opacity:1;fill-rule:nonzero;stroke:none"
         transform="matrix(1.3333333,0,0,-1.3333333,572.23667,184.6496)"
         clip-path="url(#clipPath79)"
         id="path165" />
      <path
         d="m 0,0 c -3.432,0 -7.712,-0.094 -7.712,-5.125 0,-2.633 0.423,-4.608 3.433,-4.608 3.527,0 5.078,2.633 5.078,3.573 V 0 Z m 4.749,-7.758 c 0,-0.894 0.141,-2.069 1.411,-2.069 1.081,0 1.74,0.893 2.445,1.88 l 0.517,-0.375 c -0.894,-1.552 -2.116,-2.54 -4.138,-2.54 -2.21,0 -3.809,1.27 -4.138,2.915 H 0.752 c -1.598,-2.115 -3.714,-2.915 -6.818,-2.915 -3.667,0 -5.877,1.834 -5.877,5.031 0,5.266 7.006,6.583 11.849,6.583 h 0.893 v 5.784 c 0,2.21 -2.069,2.727 -3.856,2.727 -1.363,0 -4.56,-0.517 -4.56,-2.21 0,-1.129 1.551,-0.611 1.551,-2.727 0,-1.129 -0.94,-1.975 -2.162,-1.975 -1.317,0 -2.07,1.034 -2.07,2.633 0,2.398 2.54,5.031 7.241,5.031 3.574,0 7.806,-1.833 7.806,-5.454 z"
         style="fill:#ffffff;fill-opacity:1;fill-rule:nonzero;stroke:none"
         transform="matrix(1.3333333,0,0,-1.3333333,655.38867,171.92307)"
         clip-path="url(#clipPath80)"
         id="path166" />
      <path
         d="m 0,0 c -5.974,0 -10.503,4.047 -10.503,12.14 0,8.094 4.529,12.141 10.503,12.141 3.276,0 5.347,-0.868 7.805,-3.517 L 5.444,18.548 C 3.661,20.523 2.264,21.197 0,21.197 -2.312,21.197 -4.239,20.282 -5.492,18.5 -6.6,16.958 -7.034,15.127 -7.034,12.14 -7.034,9.153 -6.6,7.323 -5.492,5.781 -4.239,3.999 -2.312,3.083 0,3.083 c 2.264,0 3.661,0.723 5.444,2.698 L 7.805,3.517 C 5.347,0.867 3.276,0 0,0"
         style="fill:#231f20;fill-opacity:1;fill-rule:nonzero;stroke:none"
         transform="matrix(1.3333333,0,0,-1.3333333,736.6484,155.84747)"
         clip-path="url(#clipPath81)"
         id="path167" />
      <path
         d="m 0,0 h -20.376 c -4.665,0 -8.814,-2.223 -11.442,-5.666 1.843,-2.417 2.937,-5.434 2.937,-8.707 v -23.976 c 0,-3.273 -1.094,-6.29 -2.937,-8.707 2.628,-3.443 6.777,-5.666 11.442,-5.666 H 0 c 4.665,0 8.814,2.223 11.442,5.666 -1.843,2.417 -2.937,5.434 -2.937,8.707 v 23.976 c 0,3.272 1.094,6.291 2.936,8.708 C 8.812,-2.222 4.664,0 0,0"
         style="fill:#ee4e2f;fill-opacity:1;fill-rule:nonzero;stroke:none"
         transform="matrix(1.3333333,0,0,-1.3333333,550.04,132.45067)"
         clip-path="url(#clipPath82)"
         id="path168" />
      <path
         d="m 0,0 c -1.844,-2.416 -2.94,-5.433 -2.94,-8.707 v -23.976 c 0,-3.273 1.096,-6.29 2.94,-8.706 1.843,2.416 2.937,5.433 2.937,8.706 V -8.707 C 2.937,-5.433 1.843,-2.416 0,0"
         style="fill:#ec361f;fill-opacity:1;fill-rule:nonzero;stroke:none"
         transform="matrix(1.3333333,0,0,-1.3333333,507.61573,140.00587)"
         clip-path="url(#clipPath83)"
         id="path169" />
      <path
         d="m 0,0 c -1.842,-2.418 -2.936,-5.436 -2.936,-8.708 v -23.976 c 0,-3.274 1.094,-6.291 2.937,-8.707 1.845,2.416 2.94,5.433 2.94,8.707 V -8.708 C 2.941,-5.435 1.845,-2.417 0,0"
         style="fill:#ec361f;fill-opacity:1;fill-rule:nonzero;stroke:none"
         transform="matrix(1.3333333,0,0,-1.3333333,565.2944,140.0036)"
         clip-path="url(#clipPath84)"
         id="path170" />
      <path
         d="m 0,0 c -3.432,0 -7.711,-0.094 -7.711,-5.125 0,-2.633 0.423,-4.608 3.432,-4.608 3.527,0 5.078,2.633 5.078,3.573 V 0 Z m 4.749,-7.758 c 0,-0.894 0.141,-2.069 1.411,-2.069 1.081,0 1.739,0.893 2.445,1.88 l 0.517,-0.375 c -0.894,-1.552 -2.116,-2.54 -4.138,-2.54 -2.21,0 -3.809,1.27 -4.138,2.915 H 0.752 c -1.598,-2.115 -3.714,-2.915 -6.818,-2.915 -3.667,0 -5.877,1.834 -5.877,5.031 0,5.266 7.006,6.583 11.849,6.583 h 0.893 v 5.784 c 0,2.21 -2.069,2.727 -3.855,2.727 -1.364,0 -4.561,-0.517 -4.561,-2.21 0,-1.129 1.551,-0.611 1.551,-2.727 0,-1.129 -0.94,-1.975 -2.162,-1.975 -1.317,0 -2.069,1.034 -2.069,2.633 0,2.398 2.539,5.031 7.241,5.031 3.573,0 7.805,-1.833 7.805,-5.454 z"
         style="fill:#ffffff;fill-opacity:1;fill-rule:nonzero;stroke:none"
         transform="matrix(1.3333333,0,0,-1.3333333,538.26227,171.92373)"
         clip-path="url(#clipPath85)"
         id="path171" />
    </g>
  </g>
</svg>
